<svg xmlns="http://www.w3.org/2000/svg" width="50.077" height="49.414" viewBox="0 0 50.077 49.414"><path d="M315.7,131.345a1.224,1.224,0,0,1-1.229-1.217v-7.394l-3.662-2.134a1.225,1.225,0,0,1-.8-1.141V106.435l-9.5,1.825v2.427a1.229,1.229,0,0,1-2.457,0v-3.38a1.218,1.218,0,0,1,.931-1.181l11.028-2.2v-.668a1.229,1.229,0,0,1,2.457,0v15.355l3.662,2.134a1.225,1.225,0,0,1,.8,1.141v8.239A1.225,1.225,0,0,1,315.7,131.345Z" transform="translate(-269.261 -97.755)" fill="#fff"/><path d="M303.1,115.31a.816.816,0,0,0,.821-.81v-2.747l10.318-2.026v13.542a.812.812,0,0,0,.533.759l3.927,2.232v7.678a.821.821,0,0,0,1.642,0V125.7a.812.812,0,0,0-.533-.759l-3.927-2.232V107.07a.821.821,0,0,0-1.642,0v.987L302.9,110.334a.812.812,0,0,0-.621.785v3.38A.815.815,0,0,0,303.1,115.31Z" transform="translate(-273.082 -101.568)" fill="#fff"/><path d="M252.345,239.554a1.224,1.224,0,0,1-1.229-1.217v-24.3L240.437,211.4V227a1.229,1.229,0,0,1-2.457,0V209.847a1.219,1.219,0,0,1,.475-.961,1.239,1.239,0,0,1,.754-.256,1.221,1.221,0,0,1,.3.037l13.135,3.24a1.217,1.217,0,0,1,.931,1.181v25.25A1.222,1.222,0,0,1,252.345,239.554Z" transform="translate(-214.993 -194.05)" fill="#fff"/><path d="M256.167,242.957a.816.816,0,0,0,.821-.81V216.9a.812.812,0,0,0-.621-.785l-13.136-3.24a.828.828,0,0,0-.7.148.8.8,0,0,0-.316.638v17.15a.821.821,0,0,0,1.642,0V214.7l11.494,2.835V242.15A.815.815,0,0,0,256.167,242.957Z" transform="translate(-218.815 -197.861)" fill="#fff"/><path d="M45.071,315.314a1.224,1.224,0,0,1-1.229-1.217V294.924h-7.4V297.9a1.229,1.229,0,0,1-2.457,0v-4.189a1.224,1.224,0,0,1,1.229-1.217h9.852a1.224,1.224,0,0,1,1.229,1.217V314.1A1.225,1.225,0,0,1,45.071,315.314Z" transform="translate(-30.707 -269.809)" fill="#fff"/><path d="M39.041,302.509a.816.816,0,0,0,.821-.81v-3.38h8.21V317.9a.821.821,0,0,0,1.642,0V297.51a.816.816,0,0,0-.821-.81H39.041a.816.816,0,0,0-.821.81V301.7A.815.815,0,0,0,39.041,302.509Z" transform="translate(-34.528 -273.613)" fill="#fff"/><path d="M1.229,394.974a1.217,1.217,0,1,1,0-2.434H3.284v-7.454a4.451,4.451,0,0,1,1.229-8.746,4.451,4.451,0,0,1,1.229,8.746v7.454H22.989v-2.593a4.513,4.513,0,1,1,2.457,0v2.593h19.71v-4.265a3.692,3.692,0,1,1,2.457,0v4.265h1.234a1.217,1.217,0,1,1,0,2.434Zm22.988-11.34a2.023,2.023,0,1,0,2.055,2.023A2.041,2.041,0,0,0,24.216,383.635Zm22.167,0a1.213,1.213,0,1,0,1.234,1.212A1.225,1.225,0,0,0,46.383,383.635Zm-41.87-4.859A2.023,2.023,0,1,0,6.568,380.8,2.041,2.041,0,0,0,4.513,378.775Z" transform="translate(0 -345.56)" fill="#ff4541"/><path d="M52.659,396.75H51.017v-4.975a3.285,3.285,0,1,0-1.642,0v4.975H28.85v-3.322a4.105,4.105,0,1,0-1.642,0v3.322H9.146v-8.182a4.105,4.105,0,1,0-1.642,0v8.182H5.041a.81.81,0,1,0,0,1.621H52.659a.81.81,0,1,0,0-1.621ZM5.862,384.6a2.463,2.463,0,1,1,2.463,2.43A2.45,2.45,0,0,1,5.862,384.6Zm19.7,4.859a2.463,2.463,0,1,1,2.463,2.43A2.45,2.45,0,0,1,25.566,389.461Zm22.988-.809a1.642,1.642,0,1,1,1.642,1.62A1.632,1.632,0,0,1,48.553,388.651Z" transform="translate(-3.812 -349.364)" fill="#ff4541"/><path d="M103.228,78.884a1.226,1.226,0,0,1-.866-.354,1.205,1.205,0,0,1-.361-.863V71.858a1.21,1.21,0,0,1,.681-1.09l2.6-1.285V62.947a1.21,1.21,0,0,1,.681-1.09l4.245-2.094V58.9a1.229,1.229,0,0,1,2.457,0v.866l4.245,2.094a1.21,1.21,0,0,1,.681,1.091v6.619a1.229,1.229,0,0,1-2.457,0V63.7l-3.7-1.824-3.7,1.824v6.536a1.21,1.21,0,0,1-.681,1.09l-2.6,1.284v5.056A1.225,1.225,0,0,1,103.228,78.884Z" transform="translate(-92.148 -57.68)" fill="#fff"/><path d="M107.031,82.28a.816.816,0,0,0,.821-.81V76.161l2.83-1.4a.811.811,0,0,0,.454-.725V67.251l4.105-2.025,4.105,2.025V73.37a.821.821,0,0,0,1.642,0V66.75a.811.811,0,0,0-.454-.725l-4.472-2.206V62.7a.821.821,0,0,0-1.642,0V63.82l-4.472,2.205a.811.811,0,0,0-.454.725V73.54l-2.83,1.4a.811.811,0,0,0-.454.725V81.47A.816.816,0,0,0,107.031,82.28Z" transform="translate(-95.951 -61.483)" fill="#fff"/></svg>