<svg xmlns="http://www.w3.org/2000/svg" width="52" height="56" viewBox="0 0 52 56">
	<g transform="translate(-34 -30.8)">
		<path d="M85,42.9c0,9.4-11.2,17-25,17s-25-7.6-25-17c0,0,11.2-11.1,25-11.1S85,42.9,85,42.9Z"	fill="none" stroke="#a36be3" stroke-miterlimit="10" stroke-width="2" />
		<path d="M62.6,41.8l14,2.4a2.59,2.59,0,0,1,2.2,2.6V67A18.778,18.778,0,0,1,60,85.8h0A18.778,18.778,0,0,1,41.2,67V46.8a2.59,2.59,0,0,1,2.2-2.6l14-2.4" fill="none" stroke="#a36be3" stroke-miterlimit="10" stroke-width="2" />
		<line x2="37.6" transform="translate(41.2 52.1)" fill="none" stroke="#a36be3" stroke-miterlimit="10" stroke-width="2" />
		<path d="M45.3,56.6v5.5a.818.818,0,0,1-1.2.7l-1.8-1.1a2.513,2.513,0,0,0-3.9,2.1v3.3a3.116,3.116,0,0,0,3.1,3.1h0" fill="none" stroke="#a36be3" stroke-miterlimit="10" stroke-width="2" />
		<path d="M74.7,56.6v5.5a.818.818,0,0,0,1.2.7l1.8-1.1a2.513,2.513,0,0,1,3.9,2.1v3.3a3.116,3.116,0,0,1-3.1,3.1h0"	fill="none" stroke="#a36be3" stroke-miterlimit="10" stroke-width="2" />
		<path d="M57.4,41.6V40.2a.43.43,0,0,1,.4-.4h4.4a.43.43,0,0,1,.4.4v2.1h0a3.049,3.049,0,0,1-1.9,2.9l-.4.2a.638.638,0,0,1-.6,0l-.4-.2a3.148,3.148,0,0,1-1.9-2.9h0Z" fill="none" stroke="#a36be3" stroke-miterlimit="10" stroke-width="2" />
		<path d="M55.4,74.6a7.8,7.8,0,0,0,9.2,0" fill="none" stroke="#a36be3" stroke-linecap="round" stroke-linejoin="round" stroke-miterlimit="10"	stroke-width="2" />
		<circle cx="1" cy="1" r="1" transform="translate(66.5 63.7)" fill="none" stroke="#a36be3" stroke-linejoin="round" stroke-miterlimit="10" stroke-width="2" />
		<circle cx="1" cy="1" r="1" transform="translate(51.5 63.7)" fill="none" stroke="#a36be3" stroke-linejoin="round" stroke-miterlimit="10" stroke-width="2" />
	</g>
</svg>