<svg xmlns="http://www.w3.org/2000/svg" width="61.9" height="55.775" viewBox="0 0 61.9 55.775">
	<g transform="translate(-29.05 -37.125)">
		<path d="M59.4,38.2l-28.3,11a1.669,1.669,0,0,0,0,3.1L59.4,63.2a2.438,2.438,0,0,0,1.2,0L88.9,52.3a1.669,1.669,0,0,0,0-3.1l-28.3-11A2.437,2.437,0,0,0,59.4,38.2Z" fill="none" stroke="#a36be3" stroke-miterlimit="10" stroke-width="2" />
		<ellipse cx="3.7" cy="2.4" rx="3.7" ry="2.4" transform="translate(55.5 48)" fill="none" stroke="#a36be3" stroke-miterlimit="10" stroke-width="2" />
		<path d="M41.8,56.5v12c0,6.2,7.8,11.3,17.3,11.3,9.6,0,17.3-5,17.3-11.3v-11"	fill="none" stroke="#a36be3" stroke-miterlimit="10" stroke-width="2" />
		<path d="M62.3,51.6l14.2,5.5V80.9" fill="none" stroke="#a36be3"	stroke-miterlimit="10" stroke-width="2" />
		<circle cx="2.4" cy="2.4" r="2.4" transform="translate(74.1 80.9)" fill="none" stroke="#a36be3" stroke-miterlimit="10" stroke-width="2" />
		<line x2="1.1" y2="3.5" transform="translate(79.4 88.1)" fill="none" stroke="#a36be3" stroke-linecap="round" stroke-miterlimit="10"	stroke-width="2" />
		<line x1="1.1" y2="3.5" transform="translate(72.5 88.1)" fill="none" stroke="#a36be3" stroke-linecap="round" stroke-miterlimit="10"	stroke-width="2" />
		<line y2="3.2" transform="translate(76.5 88.7)" fill="none" stroke="#a36be3" stroke-linecap="round" stroke-miterlimit="10" stroke-width="2" />
	</g>
</svg>