<svg xmlns="http://www.w3.org/2000/svg" width="52" height="51.8" viewBox="0 0 52 51.8">
	<g transform="translate(-34 -37)">
		<path d="M66.3,63.8H38.8A3.8,3.8,0,0,1,35,60V41.8A3.8,3.8,0,0,1,38.8,38H72.4a3.8,3.8,0,0,1,3.8,3.8V59.9a3.606,3.606,0,0,1-.6,2"	fill="none" stroke="#a36be3" stroke-miterlimit="10" stroke-width="2" />
		<path d="M44.1,48.3H39.9A1.324,1.324,0,0,1,38.6,47V42.8a1.324,1.324,0,0,1,1.3-1.3h4.2a1.324,1.324,0,0,1,1.3,1.3V47A1.324,1.324,0,0,1,44.1,48.3Z" fill="none" stroke="#a36be3" stroke-miterlimit="10" stroke-width="2" />
		<line x2="3.4" transform="translate(38.6 52.6)" fill="none" stroke="#a36be3" stroke-miterlimit="10" stroke-width="2" />
		<line x2="3.5" transform="translate(43.7 52.6)" fill="none" stroke="#a36be3" stroke-miterlimit="10" stroke-width="2" />
		<line x2="3.4" transform="translate(48.9 52.6)" fill="none" stroke="#a36be3" stroke-miterlimit="10" stroke-width="2" />
		<line x2="3.5" transform="translate(54 52.6)" fill="none" stroke="#a36be3" stroke-miterlimit="10" stroke-width="2" />
		<line x2="2.2" transform="translate(60 42.7)" fill="none" stroke="#a36be3" stroke-miterlimit="10" stroke-width="2" />
		<line x2="2.2" transform="translate(63.3 42.7)" fill="none" stroke="#a36be3" stroke-miterlimit="10" stroke-width="2" />
		<line x2="2.2" transform="translate(66.6 42.7)" fill="none" stroke="#a36be3" stroke-miterlimit="10" stroke-width="2" />
		<line x2="2.2" transform="translate(69.9 42.7)" fill="none" stroke="#a36be3" stroke-miterlimit="10" stroke-width="2" />
		<line x2="3.4" transform="translate(38.6 57.7)" fill="none" stroke="#a36be3" stroke-miterlimit="10" stroke-width="2" />
		<line x2="3.5" transform="translate(54 57.7)" fill="none" stroke="#a36be3" stroke-miterlimit="10" stroke-width="2" />
		<path d="M69.3,66.7,47.2,74.8a3.821,3.821,0,0,1-4.9-2.3l-3.2-8.7" fill="none" stroke="#a36be3" stroke-miterlimit="10" stroke-width="2" />
		<path d="M76.2,45.3l4.7,13a3.821,3.821,0,0,1-2.3,4.9l-1.3.5" fill="none" stroke="#a36be3" stroke-miterlimit="10" stroke-width="2" />
		<line y1="6.6" x2="18.1" transform="translate(41.5 63.8)" fill="none" stroke="#a36be3" stroke-miterlimit="10" stroke-width="2" />
		<rect width="15.6" height="8.6" transform="translate(69.4 79.2)" fill="none" stroke="#a36be3" stroke-miterlimit="10" stroke-width="2" />
		<path d="M76.2,45.3l6.9,7.4A7.328,7.328,0,0,1,85,57.6V79.2" fill="none"	stroke="#a36be3" stroke-miterlimit="10" stroke-width="2" />
		<path d="M69.4,79.2a8.812,8.812,0,0,1,0-12.4l-7.6-7.6a4.046,4.046,0,0,1,0-5.6h0a4.046,4.046,0,0,1,5.6,0L80.6,66.8" fill="none" stroke="#a36be3" stroke-miterlimit="10" stroke-width="2" />
		<circle cx="0.8" cy="0.8" r="0.8" transform="translate(71.9 81.8)" fill="none" stroke="#a36be3" stroke-miterlimit="10" stroke-width="2" />
	</g>
</svg>