<svg xmlns="http://www.w3.org/2000/svg" width="53.25" height="57.148" viewBox="0 0 53.25 57.148">
	<g transform="translate(-42.8 -34.2)">
		<path d="M70.4,44.9H50.6a2.006,2.006,0,0,1-2-2V37.2a2.006,2.006,0,0,1,2-2H70.5a2.006,2.006,0,0,1,2,2v5.7A2.094,2.094,0,0,1,70.4,44.9Z" fill="none" stroke="#a36be3" stroke-miterlimit="10" stroke-width="2" />
		<rect width="19.7" height="4.5" transform="translate(50.7 44.9)" fill="none" stroke="#a36be3" stroke-miterlimit="10" stroke-width="2" />
		<path d="M77.1,72.3V60.5A5.5,5.5,0,0,0,75.9,57l-5.6-7.6H50.7L45,57a6.15,6.15,0,0,0-1.2,3.5V81.1a4.118,4.118,0,0,0,4.1,4.1H67.2"	fill="none" stroke="#a36be3" stroke-miterlimit="10" stroke-width="2" />
		<line x2="33.2" transform="translate(43.9 60.5)" fill="none" stroke="#a36be3" stroke-miterlimit="10" stroke-width="2" />
		<line x2="24" transform="translate(43.9 78.7)" fill="none" stroke="#a36be3"	stroke-miterlimit="10" stroke-width="2" />
		<line y2="9.1" transform="translate(60.5 65.4)" fill="none" stroke="#a36be3" stroke-miterlimit="10" stroke-width="2" />
		<line x2="9.1" transform="translate(56 69.9)" fill="none" stroke="#a36be3" stroke-miterlimit="10" stroke-width="2" />
		<path d="M91.2,81.9,78.5,89.3A7.671,7.671,0,0,1,68,86.5h0A7.671,7.671,0,0,1,70.8,76l12.7-7.4A7.671,7.671,0,0,1,94,71.4h0A7.671,7.671,0,0,1,91.2,81.9Z" fill="none" stroke="#a36be3" stroke-miterlimit="10" stroke-width="2" />
		<line x1="7.7" y1="13.3" transform="translate(77.1 72.3)" fill="none" stroke="#a36be3" stroke-miterlimit="10" stroke-width="2" />
	</g>
</svg>