<svg xmlns="http://www.w3.org/2000/svg" width="50.942" height="50.942" viewBox="0 0 50.942 50.942"><path d="M0,0H50.942V50.942H0Z" fill="none"/><path d="M18.981,16.858A2.123,2.123,0,1,0,21.1,18.981,2.129,2.129,0,0,0,18.981,16.858Zm0,8.49A2.123,2.123,0,1,0,21.1,27.471,2.129,2.129,0,0,0,18.981,25.349Zm-6.368-7.429a1.061,1.061,0,1,0,1.061,1.061A1.051,1.051,0,0,0,12.613,17.919Zm6.368,14.858a1.061,1.061,0,1,0,1.061,1.061A1.051,1.051,0,0,0,18.981,32.778ZM12.613,26.41a1.061,1.061,0,1,0,1.061,1.061A1.051,1.051,0,0,0,12.613,26.41Zm6.368-12.736a1.061,1.061,0,1,0-1.061-1.061A1.051,1.051,0,0,0,18.981,13.674Zm8.49,3.184a2.123,2.123,0,1,0,2.123,2.123A2.129,2.129,0,0,0,27.471,16.858Zm0-3.184a1.061,1.061,0,1,0-1.061-1.061A1.051,1.051,0,0,0,27.471,13.674ZM33.839,26.41A1.061,1.061,0,1,0,34.9,27.471,1.051,1.051,0,0,0,33.839,26.41Zm0-8.49A1.061,1.061,0,1,0,34.9,18.981,1.051,1.051,0,0,0,33.839,17.919ZM23.226,2A21.226,21.226,0,1,0,44.452,23.226,21.234,21.234,0,0,0,23.226,2Zm0,38.207A16.981,16.981,0,1,1,40.207,23.226,16.976,16.976,0,0,1,23.226,40.207Zm4.245-7.429a1.061,1.061,0,1,0,1.061,1.061A1.051,1.051,0,0,0,27.471,32.778Zm0-7.429a2.123,2.123,0,1,0,2.123,2.123A2.129,2.129,0,0,0,27.471,25.349Z" transform="translate(2.245 2.245)" fill="#b5b8be"/></svg>