<svg xmlns="http://www.w3.org/2000/svg" width="33.275" height="49.366" viewBox="0 0 33.275 49.366"><path d="M116,40a.723.723,0,0,0-.723.723v6.8a.4.4,0,0,1-.4.4h-3.887V33.679a.723.723,0,1,0-1.446,0V47.92h-7.828l2.27-2.5a1.3,1.3,0,0,0,.313-1.04c0-.007,0-.015,0-.022l-2.162-12.772.582-.877a1.64,1.64,0,0,0,1.035.449,1.266,1.266,0,0,0,1.133-.7h0l2.28-4.57,5.195,2.012a5.011,5.011,0,0,1,2.917,4.555v4.891a.723.723,0,0,0,1.446,0V32.456a6.454,6.454,0,0,0-3.817-5.894l-.014-.005-8.646-3.348V21.18a6.776,6.776,0,0,0,2.564-4.457,3.13,3.13,0,0,0,1.839-.75,3.07,3.07,0,0,0,.32-4.332V8.962a8.962,8.962,0,1,0-17.925,0v2.749a2.9,2.9,0,0,0-.746,1.936,3.064,3.064,0,0,0,1.066,2.326,3.128,3.128,0,0,0,1.838.75,6.7,6.7,0,0,0,2.711,4.564v1.921l-8.636,3.348-.014.005a6.454,6.454,0,0,0-3.817,5.894V47.52a1.848,1.848,0,0,0,1.846,1.846h6.89a.723.723,0,1,0,0-1.446H90.627V33.679a.723.723,0,0,0-1.446,0V47.92H85.293a.4.4,0,0,1-.4-.4V32.456A5.011,5.011,0,0,1,87.809,27.9L93,25.889l2.28,4.57a1.266,1.266,0,0,0,1.134.7,1.639,1.639,0,0,0,1.035-.449l.582.877L95.87,44.361l0,.022a1.3,1.3,0,0,0,.313,1.04l2.27,2.5H95.557a.723.723,0,0,0,0,1.446h19.319a1.848,1.848,0,0,0,1.846-1.846v-6.8A.723.723,0,0,0,116,40ZM105.809,25.365l-2.126,4.261-2.557-1.816,2.626-3.241Zm-4.274,4.509-.551.83h-1.8l-.551-.83,1.453-1.032ZM97.36,23.441V22.088a7.337,7.337,0,0,0,2.734.518,6.789,6.789,0,0,0,2.7-.564v1.4L100.082,26.8Zm10.909-9.794a1.62,1.62,0,0,1-.563,1.23,1.684,1.684,0,0,1-.835.384V12.033A1.636,1.636,0,0,1,108.268,13.647ZM93.143,15.261a1.634,1.634,0,0,1-1.4-1.614,1.717,1.717,0,0,1,1.4-1.577Zm.039-4.665a3.575,3.575,0,0,0-.691.156V8.962a7.516,7.516,0,1,1,15.032,0V10.7a3.215,3.215,0,0,0-.652-.126c0-.7.006-.563-2.277-3.017a1.287,1.287,0,0,0-1.643-.2,13.942,13.942,0,0,1-8.428,2.269A1.286,1.286,0,0,0,93.182,10.6Zm1.408,5.234V11.081a15.453,15.453,0,0,0,9.038-2.438c1.047,1.124,1.614,1.714,1.8,1.938V15.83a5.418,5.418,0,0,1-10.835,0Zm1.891,13.8-2.126-4.261,2.053-.8,2.627,3.242Zm.83,14.891L99.4,32.15h1.357l2.093,12.367-2.771,3.049Z" transform="translate(-83.447)" fill="#232d41"/></svg>