<svg xmlns="http://www.w3.org/2000/svg" width="26.285" height="26.285" viewBox="0 0 26.285 26.285"><path d="M395.08,6.161a3.08,3.08,0,1,1,3.08-3.08A3.084,3.084,0,0,1,395.08,6.161Zm0-5.134a2.054,2.054,0,1,0,2.053,2.054A2.056,2.056,0,0,0,395.08,1.027Zm0,0" transform="translate(-371.875)" fill="#232d41"/><path d="M13.747,5.668H.513A.513.513,0,0,1,0,5.154a3.164,3.164,0,0,1,3.256-3.16,4.157,4.157,0,0,1,6.685-.566,3.5,3.5,0,0,1,4.339,3.393,3.563,3.563,0,0,1-.022.39.513.513,0,0,1-.51.457ZM1.089,4.641H13.246A2.471,2.471,0,0,0,9.933,2.5a.513.513,0,0,1-.592-.18A3.13,3.13,0,0,0,4,2.763a.514.514,0,0,1-.533.279,2.133,2.133,0,0,0-2.381,1.6Zm0,0" transform="translate(0 0)" fill="#232d41"/><path d="M438.013,449.632a.5.5,0,0,1-.1-.01.465.465,0,0,1-.1-.029.516.516,0,0,1-.088-.047.537.537,0,0,1-.078-.064.5.5,0,0,1-.064-.078.512.512,0,0,1-.047-.088.534.534,0,0,1-.029-.1.5.5,0,0,1-.01-.1.5.5,0,0,1,.01-.1.513.513,0,0,1,.029-.1.5.5,0,0,1,.047-.089.486.486,0,0,1,.064-.078.5.5,0,0,1,.078-.064.537.537,0,0,1,.089-.047.51.51,0,0,1,.1-.029.5.5,0,0,1,.2,0,.518.518,0,0,1,.1.029.547.547,0,0,1,.089.047.513.513,0,0,1,.078.064.485.485,0,0,1,.064.078.5.5,0,0,1,.047.089.515.515,0,0,1,.029.1.508.508,0,0,1,.01.1.515.515,0,0,1-.01.1.532.532,0,0,1-.029.1.5.5,0,0,1-.047.088.487.487,0,0,1-.064.078.57.57,0,0,1-.078.064.545.545,0,0,1-.089.047.472.472,0,0,1-.1.029A.5.5,0,0,1,438.013,449.632Zm0,0" transform="translate(-415.039 -425.574)" fill="#232d41"/><path d="M25.772,137.249H24.82v-5.718l.154.113a.513.513,0,0,0,.817-.414v-2.811a.514.514,0,0,0-.21-.414l-7.021-5.157a.514.514,0,0,0-.608,0l-3.085,2.266-1.422-1.045a.513.513,0,0,0-.608,0l-1.422,1.045-3.085-2.266a.514.514,0,0,0-.608,0L.7,128.005a.513.513,0,0,0-.209.414v2.811a.513.513,0,0,0,.817.414l.154-.113v5.718H.513a.513.513,0,0,0-.513.513v4.456a.513.513,0,0,0,.513.513H25.772a.513.513,0,0,0,.513-.513v-4.456a.513.513,0,0,0-.513-.513Zm-1.978-6.472v6.472H19.706v-4.5l.154.113.008.006,0,0,.006,0,0,0,.005,0,0,0,.005,0,0,0,.006,0,0,0,.007,0h0l.018.009h0l.008,0h0l.007,0h0l.007,0h0a.514.514,0,0,0,.374.014h0l.026-.01h0l0,0h0l0,0,0,0,0,0,0,0h0l.007,0a.513.513,0,0,0,.282-.458V129.64a.513.513,0,0,0-.209-.414l-2.818-2.07.608-.447Zm-9.487,8.7H11.978v-3.062h2.328Zm.513-4.089H11.465a.514.514,0,0,0-.513.513v3.576H7.606V132l5.536-4.067L18.679,132v7.479H15.333V135.9a.514.514,0,0,0-.513-.513ZM18.257,123.9l6.508,4.78v1.537l-6.2-4.557A.514.514,0,0,0,18,125.63c-.015.009-.029.018-.044.029l-1.171.861-1.046-.769Zm-5.115,1.221,6.508,4.78v1.537l-.154-.113-6.05-4.444a.494.494,0,0,0-.044-.029.515.515,0,0,0-.565.029l-6.05,4.444-.154.113V129.9ZM1.52,128.679l6.508-4.78,2.521,1.852-1.046.769-1.171-.86a.513.513,0,0,0-.608,0l-6.2,4.557Zm.971,2.1,5.536-4.067.608.447-2.818,2.07-.006,0a.513.513,0,0,0-.2.326l0,.015,0,.015a.518.518,0,0,0,0,.053v2.811a.513.513,0,0,0,.282.458l.008,0a.515.515,0,0,0,.528-.048l.154-.113v4.5H2.491Zm4.088,7.5v1.2H1.027v-1.2ZM25.258,141.7H1.027v-1.2H20.894a.513.513,0,0,0,0-1.027H19.706v-1.2h5.553Zm0,0" transform="translate(0 -116.446)" fill="#232d41"/><path d="M214.948,265.869a2.221,2.221,0,1,1,2.222-2.222A2.224,2.224,0,0,1,214.948,265.869Zm0-3.416a1.195,1.195,0,1,0,1.195,1.195A1.2,1.2,0,0,0,214.948,262.453Zm0,0" transform="translate(-201.806 -248.005)" fill="#232d41"/></svg>