<svg xmlns="http://www.w3.org/2000/svg" width="35.018" height="40.16" viewBox="0 0 35.018 40.16"><g transform="translate(-0.413)"><path d="M52.777,3.663v1.2a3.663,3.663,0,0,0,7.327,0v-1.2a3.663,3.663,0,0,0-7.327,0Zm6.01,0v1.2a2.346,2.346,0,1,1-4.692,0v-1.2a2.36,2.36,0,0,1,2.36-2.346h-.006a2.342,2.342,0,0,1,2.339,2.346Zm0,0" transform="translate(-48.053)" fill="#b5b8be"/><path d="M.443,117.128a2.309,2.309,0,0,0,2.288,2.332H2.74l.016-.008a2.264,2.264,0,0,0,1.111-.312l.409,13.777a2.453,2.453,0,0,0,4.25,1.581,2.454,2.454,0,0,0,4.25-1.587l.409-13.757a2.372,2.372,0,0,0,1.139.289,2.335,2.335,0,0,0,2.335-2.317v-9.2a3.809,3.809,0,0,0-.853-2.736,3.762,3.762,0,0,0-2.557-1.361c-.126-.013-.263-.009-.39-.009H11.279a.65.65,0,0,0-.451.168l-2.3,2.154L6.317,104a.652.652,0,0,0-.459-.179H4.179a3.739,3.739,0,0,0-3.766,3.764c0,.115.03.226.03.341Zm9.873,16.836a1.147,1.147,0,0,1-1.147-1.138V119.253a.659.659,0,0,0-1.317,0v13.573a1.131,1.131,0,0,1-2.262.032L5.123,116.99h6.809l-.475,15.863a1.15,1.15,0,0,1-1.141,1.111ZM2.438,105.847a2.437,2.437,0,0,1,1.742-.711H5.591l2.47,2.392s.008,0,.013.006l.028.022.023.016.03.021.024.015.031.018.026.013.032.014.028.011.032.011.029.008.033.007.03.005.033,0,.029,0h.063l.035,0,.028,0,.035-.005.027-.006.035-.009.027-.008.033-.012.027-.012.032-.015.026-.014.03-.018.026-.018.028-.021.024-.021c.005,0,.011,0,.015,0l2.569-2.4h1.321a2.469,2.469,0,0,1,2.468,2.693c0,.022.015.041.015.064v9.234a1.029,1.029,0,0,1-2.058,0v-2.011l.01-.32c0-.046-.01-.091-.01-.133v-3.717a.659.659,0,0,0-1.317,0v4.15l0,.577H5.084l-.025-.93c0-.031-.006-.047-.006-.076v-3.721a.659.659,0,0,0-1.317,0v6.135a1.043,1.043,0,0,1-.994,1.062H2.731a.991.991,0,0,1-.971-1.015v-9.235c0-.022-.015-.044-.017-.066-.011-.081-.017-.162-.02-.243a2.428,2.428,0,0,1,.715-1.736Zm0,0" transform="translate(0 -95.271)" fill="#b5b8be"/><path d="M231.935,181.422a2.163,2.163,0,0,0-2.158,2.17v15.733a2.175,2.175,0,0,0,2.158,2.184h11.771a2.217,2.217,0,0,0,2.207-2.184V183.592a2.205,2.205,0,0,0-2.207-2.17h-2.815v-4.281h1.3a.659.659,0,1,0,0-1.317H233.48a.659.659,0,1,0,0,1.317H234.8v4.281ZM244.6,199.34a.852.852,0,0,1-.852.852h-11.8a.852.852,0,0,1-.852-.852V183.591a.852.852,0,0,1,.852-.852h11.8a.852.852,0,0,1,.852.852Zm-8.479-22.2h3.458v4.281h-3.458Zm0,0" transform="translate(-210.482 -161.349)" fill="#b5b8be"/><path d="M262.711,302.483a.658.658,0,0,0,.659.659h9.377a.659.659,0,0,0,0-1.317H263.37A.659.659,0,0,0,262.711,302.483Zm0,0" transform="translate(-240.704 -276.977)" fill="#b5b8be"/><path d="M282.851,353.824H275.44a.681.681,0,0,0-.663.679v5.021a1.307,1.307,0,0,0,1.329,1.3h6.05a1.374,1.374,0,0,0,1.349-1.29.288.288,0,0,0,0-.037V354.5A.671.671,0,0,0,282.851,353.824Zm-.665,5.635a.081.081,0,0,1-.036.072H276.1a.033.033,0,0,1-.01-.007v-4.382h6.092Zm0,0" transform="translate(-251.777 -324.696)" fill="#b5b8be"/></g></svg>