<svg xmlns="http://www.w3.org/2000/svg" width="47.647" height="47.648" viewBox="0 0 47.647 47.648"><path d="M34.147,27A13.5,13.5,0,1,0,21.755,8.137a9.52,9.52,0,0,0-1.9-.2c-5.713,0-10.324,4.9-10.324,10.919V23.03a15.888,15.888,0,0,0,2.482,8.381l-.8,2.492a.794.794,0,0,0,.044.594,34.737,34.737,0,0,0-9.226,3.617A3.8,3.8,0,0,0,0,41.472v5.382a.794.794,0,0,0,.794.794H38.912a.794.794,0,0,0,.794-.794V41.472a3.8,3.8,0,0,0-2.025-3.357A34.74,34.74,0,0,0,28.455,34.5.794.794,0,0,0,28.5,33.9l-.8-2.491a16.274,16.274,0,0,0,2.1-5.128A13.483,13.483,0,0,0,34.147,27Zm0-25.412a11.912,11.912,0,1,1-4.632,22.889l-.006,0c-.125-.053-.249-.109-.372-.165l-.065-.03q-.18-.085-.358-.175l-.038-.02c-.1-.052-.2-.1-.3-.159l-.112-.063q-.144-.082-.285-.167l-.146-.091-.17-.108-.165-.109-.121-.083q-.159-.11-.314-.224l-.08-.059q-.316-.238-.616-.5l-.037-.032q-.3-.265-.591-.55l-.038-.038q-.274-.275-.529-.567l-.073-.085c-.05-.058-.1-.115-.147-.174q-.093-.113-.183-.228c-.037-.047-.074-.1-.11-.144s-.083-.11-.124-.166l-.09-.124q-.1-.141-.2-.285L24.2,20.05q-.088-.134-.173-.269l-.035-.057q-.105-.172-.205-.347l-.008-.014a11.879,11.879,0,0,1-1.462-4.494l-.006-.049q-.045-.407-.062-.82c0-.032,0-.064,0-.1,0-.134-.008-.269-.008-.4,0-.094,0-.187,0-.28,0-.063,0-.126.007-.189,0-.024,0-.048,0-.072a11.9,11.9,0,0,1,.746-3.609.791.791,0,0,0,.036-.136A11.916,11.916,0,0,1,34.147,1.588ZM13.98,33.854a8.946,8.946,0,0,0,4.571,2.553l-1.923,3.371L13.247,34.65l0,0-.409-.619.336-1.041Q13.56,33.445,13.98,33.854Zm5.871,3.486L21.66,40.5H18.045Zm-2.575,4.749h5.155l1.134,3.971H16.141ZM1.588,41.472A2.208,2.208,0,0,1,2.765,39.52,31.3,31.3,0,0,1,12.2,35.943l3.616,5.484-1.323,4.632H1.588Zm36.53,0v4.588h-12.9l-1.323-4.632,3.616-5.484a31.3,31.3,0,0,1,9.431,3.577A2.208,2.208,0,0,1,38.118,41.472ZM26.87,34.028l-.409.619,0,0-3.381,5.128-1.926-3.371a8.4,8.4,0,0,0,3.582-1.68c.086-.066.17-.134.254-.2l.024-.019a12.1,12.1,0,0,0,1.524-1.511Zm-.621-3.309a.816.816,0,0,0-.093.114,11.665,11.665,0,0,1-1.86,2.189,7.07,7.07,0,0,1-3.879,1.888l-.07.007-.1.009-.124.008-.064,0c-.067,0-.134,0-.2,0h0q-.107,0-.214,0a7.35,7.35,0,0,1-4.913-2.6,12.4,12.4,0,0,1-1.175-1.508.818.818,0,0,0-.087-.108,14.3,14.3,0,0,1-2.346-7.7V18.861c0-5.164,3.922-9.331,8.735-9.331a7.862,7.862,0,0,1,1.353.119,13.471,13.471,0,0,0-.547,3.323c0,.024,0,.049,0,.073-.005.151-.008.3-.008.455s0,.295.008.442c0,.037,0,.074,0,.111q.008.194.021.386c0,.018,0,.036,0,.054q.017.23.041.458l0,.034q.024.223.056.444l0,.02a13.41,13.41,0,0,0,1.7,4.861l.023.04q.1.173.209.343l.029.047q.111.174.227.345l.071.1q.08.115.162.228l.1.134q.09.121.183.241c.055.071.111.141.168.21l.107.13q.078.094.158.187l.07.08q.171.195.349.383l.042.044q.1.106.2.21l.038.038q.322.32.665.619l.049.043q.33.284.679.548l.1.076c.068.05.135.1.2.149q.135.1.272.189l.163.107.2.126.144.09q.167.1.337.2l.068.038q.161.091.325.178l.077.041c.131.068.262.135.4.2A14.666,14.666,0,0,1,26.249,30.72Z" transform="translate(0)" fill="#b5b8be"/><path d="M311.961,45.2v6.353a4.047,4.047,0,0,1-2.382-1.047v-2.08a.794.794,0,1,0-1.588,0v2.365s0,.01,0,.015v2.385a.794.794,0,1,0,1.588,0V52.46a6.421,6.421,0,0,0,2.382.692v.835a.794.794,0,1,0,1.588,0v-.843c2.616-.323,4.764-2.215,4.764-4.716,0-2.479-2.159-4.388-4.764-4.715V37.357a3.923,3.923,0,0,1,2.382,1.048v2.082a.794.794,0,0,0,1.588,0V38.122s0-.01,0-.015V35.722a.794.794,0,0,0-1.588,0v.723a6.3,6.3,0,0,0-2.382-.685v-.833a.794.794,0,0,0-1.588,0v.844c-2.606.327-4.765,2.236-4.765,4.715S309.35,44.878,311.961,45.2Zm4.764,3.226a3.457,3.457,0,0,1-3.176,3.112V45.318A3.486,3.486,0,0,1,316.725,48.428Zm-4.764-11.052V43.6a3.472,3.472,0,0,1-3.177-3.111A3.486,3.486,0,0,1,311.961,37.377Z" transform="translate(-278.608 -30.957)" fill="#b5b8be"/></svg>