<svg xmlns="http://www.w3.org/2000/svg" width="39.546" height="40.201" viewBox="0 0 39.546 40.201"><g transform="translate(-0.098 0.465)"><path d="M38.988.192a.655.655,0,0,0-.927,0L35.63,2.622H20.366L1.176,21.971a2.312,2.312,0,0,0,0,3.272L14.594,38.66a2.318,2.318,0,0,0,3.277-.007L36.557,19.463V3.549l2.43-2.43A.655.655,0,0,0,38.988.192ZM35.247,18.93l-18.308,18.8a1,1,0,0,1-1.417,0L2.1,24.315a1,1,0,0,1,0-1.419L20.912,3.934H34.32L31.151,7.1a3.288,3.288,0,1,0,.927.927l3.169-3.169Zm-3.934-9.1a1.967,1.967,0,1,1-1.967-1.967,1.944,1.944,0,0,1,.842.2L28.883,9.371a.656.656,0,1,0,.927.927l1.306-1.306A1.944,1.944,0,0,1,31.313,9.834Z" fill="#b5b8be" stroke="#b5b8be" stroke-width="0.8"/><path d="M31.606,20.223a.656.656,0,1,0-.927-.927l-.489.489a5.878,5.878,0,0,0-4.176-1.27,3.864,3.864,0,0,0-2.7,1.438,4.127,4.127,0,0,0-.885,3.1l.5,3.993-5.866,5.866a4.593,4.593,0,0,1,.426-5.99.656.656,0,1,0-.927-.927,5.907,5.907,0,0,0-.436,7.854l-.749.749a.656.656,0,1,0,.927.927l.749-.749a5.889,5.889,0,0,0,3.679,1.293q.247,0,.5-.021a3.858,3.858,0,0,0,2.7-1.437,4.127,4.127,0,0,0,.886-3.1l-.5-3.993,5.866-5.866a4.594,4.594,0,0,1-.427,5.99.656.656,0,0,0,.927.927,5.908,5.908,0,0,0,.436-7.854Zm-8.1,11.449a2.809,2.809,0,0,1-.6,2.109,2.561,2.561,0,0,1-1.786.957,4.619,4.619,0,0,1-3.128-.9l5.144-5.145Zm.224-8.785a2.81,2.81,0,0,1,.6-2.108,2.566,2.566,0,0,1,1.787-.958,4.6,4.6,0,0,1,3.129.9l-5.145,5.145Z" transform="translate(-4.939 -6.369)" fill="#b5b8be" stroke="#b5b8be" stroke-width="0.8"/></g></svg>