<svg xmlns="http://www.w3.org/2000/svg" width="44.381" height="39.203" viewBox="0 0 44.381 39.203"><g transform="translate(0 0)"><path d="M43.641,68.59H42.9V45.66a.74.74,0,0,0-.74-.74h-3.7V42.7h2.219a.74.74,0,0,0,.74-.74V31.606a.74.74,0,0,0-.74-.74H25.889a.74.74,0,0,0-.74.74V41.961a.74.74,0,0,0,.74.74h2.219V44.92H23.67V35.3a.74.74,0,0,0-.74-.74H2.219a.74.74,0,0,0-.74.74V68.59H.74a.74.74,0,1,0,0,1.479h42.9a.74.74,0,0,0,0-1.479Zm-29.587,0H11.1V64.152h2.959ZM26.628,32.345H39.943v8.876H26.628ZM29.587,42.7h7.4V44.92h-7.4Zm-.743,3.7H41.422V68.59H23.67V46.4ZM2.959,36.044H22.19V68.59H15.533V63.412a.74.74,0,0,0-.74-.74H10.356a.74.74,0,0,0-.74.74V68.59H2.959V36.044Z" transform="translate(0 -30.866)" fill="#b5b8be"/><path d="M60.474,122.117h4.438a.74.74,0,0,0,.74-.74V116.94a.74.74,0,0,0-.74-.74H60.474a.74.74,0,0,0-.74.74v4.438A.74.74,0,0,0,60.474,122.117Zm.74-4.438h2.959v2.959H61.213Z" transform="translate(-54.556 -108.803)" fill="#b5b8be"/><path d="M162.874,122.117h4.438a.74.74,0,0,0,.74-.74V116.94a.74.74,0,0,0-.74-.74h-4.438a.74.74,0,0,0-.74.74v4.438A.74.74,0,0,0,162.874,122.117Zm.74-4.438h2.959v2.959h-2.959Z" transform="translate(-148.08 -108.803)" fill="#b5b8be"/><path d="M60.474,215.984h4.438a.74.74,0,0,0,.74-.74v-4.438a.74.74,0,0,0-.74-.74H60.474a.74.74,0,0,0-.74.74v4.438A.74.74,0,0,0,60.474,215.984Zm.74-4.438h2.959v2.959H61.213Z" transform="translate(-54.556 -194.534)" fill="#b5b8be"/><path d="M162.874,215.984h4.438a.74.74,0,0,0,.74-.74v-4.438a.74.74,0,0,0-.74-.74h-4.438a.74.74,0,0,0-.74.74v4.438A.74.74,0,0,0,162.874,215.984Zm.74-4.438h2.959v2.959h-2.959Z" transform="translate(-148.08 -194.534)" fill="#b5b8be"/><path d="M64.912,309.85a.74.74,0,0,0,.74-.74v-4.438a.74.74,0,0,0-.74-.74H60.474a.74.74,0,0,0-.74.74v4.438a.74.74,0,0,0,.74.74Zm-3.7-4.438h2.959v2.959H61.213Z" transform="translate(-54.556 -280.263)" fill="#b5b8be"/><path d="M299.407,258.65h4.438a.74.74,0,0,0,.74-.74v-4.438a.74.74,0,0,0-.74-.74h-4.438a.74.74,0,0,0-.74.74v4.438A.74.74,0,0,0,299.407,258.65Zm.74-4.438h2.959v2.959h-2.959Z" transform="translate(-272.778 -233.501)" fill="#b5b8be"/><path d="M299.407,352.517h4.438a.74.74,0,0,0,.74-.74V347.34a.74.74,0,0,0-.74-.74h-4.438a.74.74,0,0,0-.74.74v4.438A.74.74,0,0,0,299.407,352.517Zm.74-4.438h2.959v2.959h-2.959Z" transform="translate(-272.778 -319.232)" fill="#b5b8be"/><path d="M384.74,258.65h4.438a.74.74,0,0,0,.74-.74v-4.438a.74.74,0,0,0-.74-.74H384.74a.74.74,0,0,0-.74.74v4.438A.74.74,0,0,0,384.74,258.65Zm.74-4.438h2.959v2.959h-2.959Z" transform="translate(-350.714 -233.501)" fill="#b5b8be"/><path d="M384.74,352.517h4.438a.74.74,0,0,0,.74-.74V347.34a.74.74,0,0,0-.74-.74H384.74a.74.74,0,0,0-.74.74v4.438A.74.74,0,0,0,384.74,352.517Zm.74-4.438h2.959v2.959h-2.959Z" transform="translate(-350.714 -319.232)" fill="#b5b8be"/><path d="M162.874,309.85h4.438a.74.74,0,0,0,.74-.74v-4.438a.74.74,0,0,0-.74-.74h-4.438a.74.74,0,0,0-.74.74v4.438A.74.74,0,0,0,162.874,309.85Zm.74-4.438h2.959v2.959h-2.959Z" transform="translate(-148.08 -280.263)" fill="#b5b8be"/><path d="M347.991,69.439h-.4a2.944,2.944,0,0,0,.4-1.479V65.741a.74.74,0,0,0-.74-.74h-4.438a.74.74,0,0,0-.74.74V67.96a2.944,2.944,0,0,0,.4,1.479h-.4a.74.74,0,1,0,0,1.479h5.917a.74.74,0,1,0,0-1.479Zm-4.438-1.479V66.48h2.959V67.96a1.479,1.479,0,1,1-2.959,0Z" transform="translate(-311.747 -62.042)" fill="#b5b8be"/></g></svg>