<svg xmlns="http://www.w3.org/2000/svg" width="51.517" height="46.99" viewBox="0 0 51.517 46.99"><g transform="translate(0 0)"><path d="M31.6,36.608a2.779,2.779,0,0,0-1.686-1.854A5.27,5.27,0,0,0,31.7,30.8V27.782a5.283,5.283,0,0,0-10.565,0V30.8a5.27,5.27,0,0,0,1.785,3.954,2.779,2.779,0,0,0-1.679,1.832h-1.72a2.772,2.772,0,0,0-2.662-2.012H11.823a2.772,2.772,0,0,0-2.67,2.041,8.311,8.311,0,0,0-7.644,8.273v1.538A2.268,2.268,0,0,0,0,48.559a.755.755,0,0,0,1.509,0,.755.755,0,1,1,1.509,0V68.734a.755.755,0,0,0,1.509,0V48.559a2.268,2.268,0,0,0-1.509-2.134V44.887a6.8,6.8,0,0,1,6.037-6.749V47.4a5.267,5.267,0,0,0,1.655,3.834L9.761,67.684a.755.755,0,0,0,.515.759l3.019,1.006a.755.755,0,0,0,.477-1.432L11.3,67.194l.864-14.979a5.264,5.264,0,0,0,4.53-.088l-.9,15.557a.755.755,0,0,0,.515.759l3.019,1.006a.755.755,0,0,0,.477-1.432l-2.471-.824.939-16.278A5.259,5.259,0,0,0,19.621,47.4V38.1H21.13V47.4a5.267,5.267,0,0,0,1.655,3.834l-.949,16.447a.755.755,0,0,0,.515.759l3.019,1.006a.755.755,0,0,0,.477-1.432l-2.471-.824.864-14.979a5.264,5.264,0,0,0,4.53-.088l-.9,15.557a.755.755,0,0,0,.515.759l3.019,1.006a.755.755,0,0,0,.478-1.432l-2.471-.824.939-16.278A5.26,5.26,0,0,0,31.7,47.4V38.131A8.311,8.311,0,0,1,39.242,46.4a.755.755,0,1,0,1.509,0A9.823,9.823,0,0,0,31.6,36.608Zm-18.012-.526h1.509v8.553H13.584ZM10.565,37.34a1.259,1.259,0,0,1,1.258-1.258h.252v8.553H10.565ZM18.112,47.4a3.773,3.773,0,0,1-7.546,0V46.145h7.546Zm0-2.767H16.6V36.083h.252A1.259,1.259,0,0,1,18.1,37.2a.731.731,0,0,0,.008.309Zm4.528-16.854a3.773,3.773,0,0,1,7.546,0v.252H28.663a3.019,3.019,0,0,0-4.5,0H22.639Zm0,3.019V29.542H24.53a.755.755,0,0,0,.627-.335,1.509,1.509,0,0,1,2.511,0,.755.755,0,0,0,.627.335h1.891V30.8a3.773,3.773,0,0,1-7.546,0Zm3.773,20.375a3.78,3.78,0,0,1-3.7-3.019H30.11A3.78,3.78,0,0,1,26.413,51.176Zm3.773-4.528H27.167V44.384a.755.755,0,0,0-1.509,0v2.264H22.639V37.34A1.259,1.259,0,0,1,23.9,36.083h1.761v5.283a.755.755,0,0,0,1.509,0V36.083h1.761a1.259,1.259,0,0,1,1.258,1.258Z" transform="translate(0 -22.499)" fill="#232d41"/></g><g transform="translate(9.056 0)"><path d="M95.283,22.5a5.283,5.283,0,1,0,5.283,5.283A5.289,5.289,0,0,0,95.283,22.5Zm0,9.056a3.773,3.773,0,1,1,3.773-3.773A3.777,3.777,0,0,1,95.283,31.555Z" transform="translate(-90 -22.499)" fill="#232d41"/></g><g transform="translate(36.223 29.18)"><path d="M374.54,319.744h-8.5v-4.981a2.264,2.264,0,0,0-4.4-.755h-.884a.755.755,0,0,0,0,1.509h.755v8a3.78,3.78,0,0,0,3.019,3.7v2.34a.755.755,0,1,0,1.509,0V327.29h1.509v2.264a.755.755,0,1,0,1.509,0V327.29h2.264a2.266,2.266,0,0,0,2.264-2.264v-3.773h.956a.755.755,0,1,0,0-1.509Zm-2.465,5.283a.755.755,0,0,1-.755.755h-6.037a2.267,2.267,0,0,1-2.264-2.264v-8.754a.755.755,0,1,1,1.509,0v7.245a2.267,2.267,0,0,0,2.264,2.264h3.019a.755.755,0,0,0,0-1.509h-3.019a.755.755,0,0,1-.755-.755v-.755h6.037Z" transform="translate(-360 -312.499)" fill="#232d41"/></g></svg>