<svg xmlns="http://www.w3.org/2000/svg" width="35.909" height="33" viewBox="0 0 35.909 33"><path d="M32.3,28.129l-5.686-2.463a1.153,1.153,0,0,1-.41-.449l3.8,0a6.727,6.727,0,0,0,2.886-.39,1.728,1.728,0,0,0,.723-2.577c-1.085-1.544-3.618-5.579-3.7-9.672,0-.07-.231-7.03-7.1-7.087a8.175,8.175,0,0,0-2.8.5,4.838,4.838,0,0,0-.866-1.431C17.951,3.191,16.012,2.5,13.382,2.5s-4.57.691-5.765,2.054A5.216,5.216,0,0,0,6.4,8.35v3.095a2.32,2.32,0,0,0-.582,1.527V15.3a2.314,2.314,0,0,0,.871,1.809,12.211,12.211,0,0,0,2.038,4.211v1.925a1.537,1.537,0,0,1-.8,1.35l-5.19,2.831A5.248,5.248,0,0,0,0,32.034V34.5H34.909V32.349A4.692,4.692,0,0,0,32.3,28.129Zm-6.7,5.207H1.164v-1.3a4.082,4.082,0,0,1,2.129-3.586l5.19-2.831a2.7,2.7,0,0,0,1.408-2.372V20.906l-.136-.162a10.984,10.984,0,0,1-1.984-4.111l-.053-.23-.2-.128a1.161,1.161,0,0,1-.538-.976V12.973a1.148,1.148,0,0,1,.39-.858l.192-.173V8.318l-.005-.076a4.04,4.04,0,0,1,.934-2.921c.964-1.1,2.609-1.657,4.89-1.657s3.914.553,4.879,1.645A3.781,3.781,0,0,1,19.1,6.977c.009.041.018.081.026.121s.017.083.023.122.014.088.02.131.009.062.013.092c.009.072.016.142.02.207a.132.132,0,0,1,0,.015c0,.063.007.122.009.176,0,.01,0,.019,0,.03,0,.048,0,.094,0,.134v.017c0,.137-.012.218-.012.22l0,3.7.192.173a1.146,1.146,0,0,1,.39.858V15.3a1.157,1.157,0,0,1-.827,1.1l-.29.089-.093.288a12.18,12.18,0,0,1-1.649,3.324,7.655,7.655,0,0,1-.487.628l-.145.165v2.4a2.741,2.741,0,0,0,.037.433c0,.03.013.059.019.09a2.73,2.73,0,0,0,.09.343c.009.026.018.051.028.077a2.706,2.706,0,0,0,.16.352l.02.039a2.656,2.656,0,0,0,.293.421l.133.163h.023a2.71,2.71,0,0,0,.689.5l5.558,2.779A4.06,4.06,0,0,1,25.6,32.148Zm8.145,0H26.764V32.148a5.22,5.22,0,0,0-2.9-4.694l-3.99-2a1.008,1.008,0,0,0-.923-1.4h-1.29a1.482,1.482,0,0,1-.066-.149,1.27,1.27,0,0,1-.139-.606V21.332c.133-.163.273-.349.418-.553A13.315,13.315,0,0,0,19.592,17.4a2.309,2.309,0,0,0,1.354-2.1V12.973a2.32,2.32,0,0,0-.582-1.527V8.351a5.119,5.119,0,0,0-.049-1.245,6.963,6.963,0,0,1,2.5-.454c5.726.047,5.935,5.708,5.94,5.947.086,4.412,2.761,8.685,3.908,10.317a.565.565,0,0,1,.081.481.544.544,0,0,1-.311.358,5.72,5.72,0,0,1-2.371.3h-4A1.072,1.072,0,0,0,25.09,25.6a2.429,2.429,0,0,0,1.033,1.121l5.671,2.456a3.534,3.534,0,0,1,1.951,3.172Z" transform="translate(0.5 -2)" fill="#b5b8be" stroke="#b5b8be" stroke-width="1"/></svg>