<svg xmlns="http://www.w3.org/2000/svg" width="45.107" height="59.7" viewBox="0 0 45.107 59.7"><path d="M31.5,37.7a4.9,4.9,0,1,1,9.8,0" fill="none" stroke="#ff4641" stroke-miterlimit="10" stroke-width="2"/><line x2="8.4" transform="translate(18.4 44.2)" fill="none" stroke="#ff4641" stroke-linecap="round" stroke-miterlimit="10" stroke-width="2"/><line x2="8.4" transform="translate(18.4 46.8)" fill="none" stroke="#ff4641" stroke-linecap="round" stroke-miterlimit="10" stroke-width="2"/><path d="M39.3,58.7H35.7a2.006,2.006,0,0,1-2-2V51.8h7.6v4.9A2.006,2.006,0,0,1,39.3,58.7Z" fill="none" stroke="#ff4641" stroke-miterlimit="10" stroke-width="2"/><path d="M5.8,58.7H9.4a2.006,2.006,0,0,0,2-2V51.8H3.9v4.9A1.923,1.923,0,0,0,5.8,58.7Z" fill="none" stroke="#ff4641" stroke-miterlimit="10" stroke-width="2"/><path d="M41.7,1H3.5A2.476,2.476,0,0,0,1,3.5V49.3a2.476,2.476,0,0,0,2.5,2.5H41.6a2.476,2.476,0,0,0,2.5-2.5V3.5A2.393,2.393,0,0,0,41.7,1Z" fill="none" stroke="#ff4641" stroke-miterlimit="10" stroke-width="2"/><circle cx="2.3" cy="2.3" r="2.3" transform="translate(5.4 43.2)" fill="none" stroke="#ff4641" stroke-miterlimit="10" stroke-width="2"/><circle cx="2.3" cy="2.3" r="2.3" transform="translate(35.2 43.2)" fill="none" stroke="#ff4641" stroke-miterlimit="10" stroke-width="2"/><line x1="43.2" transform="translate(1 37.7)" fill="none" stroke="#ff4641" stroke-miterlimit="10" stroke-width="2"/><line x2="43.2" transform="translate(1 9.8)" fill="none" stroke="#ff4641" stroke-miterlimit="10" stroke-width="2"/><line x2="9.2" transform="translate(19.7 5.5)" fill="none" stroke="#ff4641" stroke-linecap="round" stroke-miterlimit="10" stroke-width="2"/><line x2="0.6" transform="translate(16.3 5.5)" fill="none" stroke="#ff4641" stroke-linecap="round" stroke-miterlimit="10" stroke-width="2"/></svg>