<svg xmlns="http://www.w3.org/2000/svg" width="23.831" height="37.65" viewBox="0 0 23.831 37.65"><path d="M23.472,3.61a2.51,2.51,0,0,0-4.573.763L16.95,12.74V2.615A2.573,2.573,0,0,0,14.563,0a2.51,2.51,0,0,0-2.635,2.51V16.887L10.042,4.6v0a2.51,2.51,0,0,0-4.963.753L7.131,18.927,4.887,12.364a.614.614,0,0,0-.147-.232,2.527,2.527,0,0,0-1.156-1.212,2.484,2.484,0,0,0-2.074-.049A2.6,2.6,0,0,0,.174,14.1l4.964,14.59a11.883,11.883,0,0,0,1.4,2.814l.2.3a.652.652,0,0,1,.1.359v3.606A1.879,1.879,0,0,0,8.7,37.65H18.756a1.875,1.875,0,0,0,1.864-1.882V35.1a4.256,4.256,0,0,1,1.067-2.657,5.96,5.96,0,0,0,1.438-4.208V21.964a2.514,2.514,0,0,0-1.992-2.455l2.651-14a2.492,2.492,0,0,0-.313-1.9Zm-.914,1.643-2.689,14.2H13.719a2.51,2.51,0,0,0-2.51,2.51A3.137,3.137,0,0,0,14.347,25.1h2.51v.746a4.778,4.778,0,0,0-2.4,2.044.628.628,0,0,0,1.045.7c1.022-1.534,1.963-1.6,1.987-1.6a.627.627,0,0,0,.627-.627V25.1h1.255a.627.627,0,1,0,0-1.255h-5.02a1.882,1.882,0,0,1-1.882-1.882,1.255,1.255,0,0,1,1.255-1.255h6.9a1.255,1.255,0,0,1,1.255,1.255v6.317A4.79,4.79,0,0,1,20.8,31.56a5.521,5.521,0,0,0-1.44,3.581.04.04,0,0,0,0,.012v.616a.628.628,0,0,1-.609.628H8.7a.622.622,0,0,1-.615-.628V32.16a1.909,1.909,0,0,0-.307-1.054l-.209-.31A10.613,10.613,0,0,1,6.325,28.28L1.363,13.7a1.356,1.356,0,0,1,.645-1.672,1.226,1.226,0,0,1,1.016.022,1.276,1.276,0,0,1,.634.725.609.609,0,0,0,.1.171l2.183,6.391a1.23,1.23,0,0,0,1.172.851,1.328,1.328,0,0,0,.314-.038,1.234,1.234,0,0,0,.941-1.407L6.32,5.164a1.255,1.255,0,0,1,2.48-.38l1.887,12.3a1.255,1.255,0,0,0,2.5-.188V2.513a1.244,1.244,0,0,1,.39-.908,1.274,1.274,0,0,1,.926-.347,1.334,1.334,0,0,1,1.2,1.357v14.23a.784.784,0,0,0,1.546.18L20.121,4.659a1.25,1.25,0,0,1,1.506-.937,1.235,1.235,0,0,1,.779.553,1.266,1.266,0,0,1,.153.978Zm0,0" transform="translate(-0.022 0)" fill="#b5b8be"/><path d="M221.061,445.032h.628a.627.627,0,0,0,0-1.255h-.628a.627.627,0,0,0,0,1.255Zm0,0" transform="translate(-204.227 -411.147)" fill="#b5b8be"/><path d="M126.566,444.405a.627.627,0,0,0,.627.628h4.392a.627.627,0,1,0,0-1.255h-4.392A.627.627,0,0,0,126.566,444.405Zm0,0" transform="translate(-117.261 -411.147)" fill="#b5b8be"/></svg>