<svg xmlns="http://www.w3.org/2000/svg" width="55.48" height="45.408" viewBox="0 0 55.48 45.408"><path d="M54.949,10.316,37.405,3.628a.824.824,0,1,0-.587,1.54l15.525,5.919L41.6,15.184,28.079,9.064a.824.824,0,0,0-.68,1.5l12.027,5.445L27.739,20.467l-24.6-9.38,24.6-9.38L33.8,4.018a.824.824,0,1,0,.587-1.54L28.033.054a.824.824,0,0,0-.588,0L.53,10.316a.825.825,0,0,0-.53.77v3.763a.825.825,0,0,0,.53.77l8.405,3.2v2.855a.824.824,0,1,0,1.648,0V19.452l16.863,6.429a.823.823,0,0,0,.588,0l12.711-4.846v13.04A27.918,27.918,0,0,1,10.583,31.4V24.975a.824.824,0,1,0-1.648,0V31.8a.823.823,0,0,0,.309.643,29.561,29.561,0,0,0,31.5,3.476v3.335a3.131,3.131,0,1,0,1.648,0V35.052a29.369,29.369,0,0,0,3.844-2.606.824.824,0,0,0,.309-.643V18.823l8.4-3.2a.824.824,0,0,0,.53-.77V11.086a.825.825,0,0,0-.53-.77Zm-11.9,31.961a1.483,1.483,0,1,1-1.483-1.483A1.485,1.485,0,0,1,43.051,42.277ZM1.647,12.283l25.268,9.634v2L1.647,14.281ZM28.563,23.915v-2l12.181-4.644v2ZM44.9,31.4a27.6,27.6,0,0,1-2.5,1.735V20.407l2.5-.955Zm-2.5-12.761v-2l11.44-4.361v2Zm0,0" transform="translate(0.001 0)" fill="#232d41"/></svg>