<svg xmlns="http://www.w3.org/2000/svg" width="33.016" height="33.016" viewBox="0 0 33.016 33.016"><path d="M311.981,311.351a2.719,2.719,0,1,0,2.646,2.718A2.686,2.686,0,0,0,311.981,311.351Zm0,4.031a1.315,1.315,0,1,1,1.241-1.313A1.28,1.28,0,0,1,311.981,315.382Z" transform="translate(-288.492 -290.372)" fill="#b5b8be"/><path d="M104.768,311.351a2.719,2.719,0,1,0,2.646,2.718A2.686,2.686,0,0,0,104.768,311.351Zm0,4.031a1.315,1.315,0,1,1,1.241-1.313A1.28,1.28,0,0,1,104.768,315.382Z" transform="translate(-95.241 -290.372)" fill="#b5b8be"/><rect width="4.394" height="1.405" transform="translate(14.311 22.994)" fill="#b5b8be"/><path d="M31.084,3.946H29.867A4.583,4.583,0,0,0,25.334,0H7.682A4.584,4.584,0,0,0,3.149,3.946H1.933A1.958,1.958,0,0,0,0,5.924v6.262a1.958,1.958,0,0,0,1.933,1.978H3.1V24.547a4.585,4.585,0,0,0,3.646,4.482v1.236a2.685,2.685,0,0,0,2.605,2.752h.41a2.685,2.685,0,0,0,2.605-2.752v-1.14h8.274v1.14a2.685,2.685,0,0,0,2.605,2.752h.409a2.685,2.685,0,0,0,2.605-2.752V29.029a4.585,4.585,0,0,0,3.646-4.482V14.164h1.172a1.958,1.958,0,0,0,1.932-1.978V5.924A1.958,1.958,0,0,0,31.084,3.946ZM7.682,1.4H25.334a3.176,3.176,0,0,1,3.172,3.172V6h-24V4.577A3.176,3.176,0,0,1,7.682,1.4Zm-3.172,6H15.725V18H4.51Zm12.62,0H28.506V18H17.13Zm-15.2,5.352a.553.553,0,0,1-.528-.573V5.924a.552.552,0,0,1,.528-.573H3.1v7.408H1.933Zm9.034,17.505a1.282,1.282,0,0,1-1.2,1.347h-.41a1.282,1.282,0,0,1-1.2-1.347v-1.14h2.811v1.14ZM23.66,31.611H23.25a1.282,1.282,0,0,1-1.2-1.347v-1.14h2.81v1.14A1.282,1.282,0,0,1,23.66,31.611Zm1.674-3.892H7.682A3.176,3.176,0,0,1,4.51,24.547V19.4h24v5.146A3.176,3.176,0,0,1,25.334,27.719Zm6.277-15.534a.552.552,0,0,1-.527.573H29.911V5.351h1.172a.552.552,0,0,1,.527.573Z" fill="#b5b8be"/></svg>