<svg xmlns="http://www.w3.org/2000/svg" width="33.108" height="33.108" viewBox="0 0 33.108 33.108"><path d="M14.226,0H1.293A1.293,1.293,0,0,0,0,1.293V14.226a1.293,1.293,0,0,0,1.293,1.293H14.226a1.293,1.293,0,0,0,1.293-1.293V1.293A1.293,1.293,0,0,0,14.226,0ZM12.933,12.933H2.587V2.587H12.933ZM32.31,17.687a1.293,1.293,0,0,0-1.409.28L17.967,30.9a1.293,1.293,0,0,0,.914,2.208H31.815a1.293,1.293,0,0,0,1.293-1.293V18.882a1.293,1.293,0,0,0-.8-1.195ZM30.521,30.521H22L30.521,22Zm-5.173-15a7.76,7.76,0,1,0-7.76-7.76A7.769,7.769,0,0,0,25.348,15.519Zm0-12.933A5.173,5.173,0,1,1,20.175,7.76,5.179,5.179,0,0,1,25.348,2.587ZM15.14,19.8,9.589,25.348,15.14,30.9a1.293,1.293,0,0,1-1.829,1.829L7.76,27.177,2.208,32.729A1.293,1.293,0,0,1,.379,30.9l5.552-5.552L.379,19.8a1.293,1.293,0,0,1,1.829-1.829L7.76,23.519l5.552-5.552A1.293,1.293,0,0,1,15.14,19.8Zm0,0" transform="translate(0)" fill="#b5b8be"/></svg>