<svg xmlns="http://www.w3.org/2000/svg" width="34.909" height="34.909" viewBox="0 0 34.909 34.909"><g transform="translate(0 0)"><path d="M33.327,32.746H30.964A4.528,4.528,0,0,0,31,32.165a4.046,4.046,0,0,0-2.327-3.687V8.892a.55.55,0,0,0-.582-.582H19.364V-.417A.55.55,0,0,0,18.782-1H3.073a.55.55,0,0,0-.582.582V32.746H-.418A.55.55,0,0,0-1,33.328a.55.55,0,0,0,.582.582H33.327a.582.582,0,0,0,0-1.164Zm-5.818-4.613a4.2,4.2,0,0,0-.582-.041,3.93,3.93,0,0,0-1.277.215.565.565,0,0,0-.468-.215.55.55,0,0,0-.582.582v.178a4.074,4.074,0,0,0-.612.542q-.044.047-.087.095A3.686,3.686,0,0,0,22.1,28.237a.587.587,0,0,0-.406-.145.688.688,0,0,0-.182.023,3.448,3.448,0,0,0-.4-.023A3.061,3.061,0,0,0,20,28.274l-.123.044a3.628,3.628,0,0,0-1.368-.692l-.016,0-.13-.031-.107-.021-.047-.009-.113-.017-.051-.007-.1-.012-.077-.006-.082-.005c-.055,0-.111,0-.166,0l-.128,0-.083,0-.033,0a3.419,3.419,0,0,0-1.5.45V9.474H27.509ZM3.655.165H18.2V8.31H15.291a.55.55,0,0,0-.582.582V26.986a4.215,4.215,0,0,0-1.013-.746l-.1-.051-.039-.02a4.028,4.028,0,0,0-1.339-.383l-.02,0q-.082-.008-.165-.013l-.044,0c-.063,0-.125,0-.188,0a3.948,3.948,0,0,0-2.327.763v-.182a.582.582,0,0,0-1.164,0V27.51a.661.661,0,0,0,.042.238,4.194,4.194,0,0,0-.565,1.566,3.952,3.952,0,0,0-1.8.678v-.154a.55.55,0,0,0-.582-.582.55.55,0,0,0-.582.582V31a.683.683,0,0,0,.026.189,4.058,4.058,0,0,0-.566,1.556H3.655V.165Zm4.39,30.267.035,0,.092-.006c.046,0,.091,0,.138,0a.55.55,0,0,0,.582-.582A2.881,2.881,0,0,1,11.8,26.928a2.838,2.838,0,0,1,2.851,2.5.631.631,0,0,0,.261.373l.025.016.027.016a.6.6,0,0,0,.067.032h0a.648.648,0,0,0,.083.027h0a.335.335,0,0,0,.116.015.563.563,0,0,0,.466-.247h0l.058-.058a2.342,2.342,0,0,1,1.862-.931,2.262,2.262,0,0,1,1.138.316A3.533,3.533,0,0,0,17.623,31.4q0,.089,0,.18a3.421,3.421,0,0,0,.2,1.164H5.458A2.932,2.932,0,0,1,8.044,30.431Zm11.148,2.315a2.483,2.483,0,0,1-.352-1.222,2.272,2.272,0,0,1,.69-1.647,2.355,2.355,0,0,1,.266-.213.584.584,0,0,0,.266-.06,2.288,2.288,0,0,1,3.258,1.222.527.527,0,0,0,.524.349.4.4,0,0,0,.178-.049.492.492,0,0,0,.346-.3,2.677,2.677,0,0,1,1-1.13.534.534,0,0,0,.233-.132,2.95,2.95,0,0,1,1.327-.309,2.881,2.881,0,0,1,2.909,2.909,1.98,1.98,0,0,1-.058.582H19.192Z" transform="translate(1 0.999)" fill="#b5b8be"/><path d="M272.649,220.867a.55.55,0,0,0-.582.582v1.164a.582.582,0,0,0,1.164,0v-1.164A.55.55,0,0,0,272.649,220.867Z" transform="translate(-253.449 -205.74)" fill="#b5b8be"/><path d="M272.649,374.467a.55.55,0,0,0-.582.582v1.164a.582.582,0,1,0,1.164,0v-1.164A.55.55,0,0,0,272.649,374.467Z" transform="translate(-253.449 -348.867)" fill="#b5b8be"/><path d="M272.649,272.067a.55.55,0,0,0-.582.582v1.164a.582.582,0,0,0,1.164,0v-1.164A.55.55,0,0,0,272.649,272.067Z" transform="translate(-253.449 -253.449)" fill="#b5b8be"/><path d="M272.649,323.267a.55.55,0,0,0-.582.582v1.164a.582.582,0,0,0,1.164,0v-1.164A.55.55,0,0,0,272.649,323.267Z" transform="translate(-253.449 -301.158)" fill="#b5b8be"/><path d="M272.649,169.667a.55.55,0,0,0-.582.582v1.164a.582.582,0,1,0,1.164,0v-1.164A.55.55,0,0,0,272.649,169.667Z" transform="translate(-253.449 -158.031)" fill="#b5b8be"/><path d="M323.849,223.194a.55.55,0,0,0,.582-.582v-1.164a.582.582,0,0,0-1.164,0v1.164A.55.55,0,0,0,323.849,223.194Z" transform="translate(-301.158 -205.74)" fill="#b5b8be"/><path d="M323.849,171.994a.55.55,0,0,0,.582-.582v-1.164a.582.582,0,1,0-1.164,0v1.164A.55.55,0,0,0,323.849,171.994Z" transform="translate(-301.158 -158.031)" fill="#b5b8be"/><path d="M323.849,274.394a.55.55,0,0,0,.582-.582v-1.164a.582.582,0,0,0-1.164,0v1.164A.55.55,0,0,0,323.849,274.394Z" transform="translate(-301.158 -253.449)" fill="#b5b8be"/><path d="M323.849,325.594a.55.55,0,0,0,.582-.582v-1.164a.582.582,0,0,0-1.164,0v1.164A.55.55,0,0,0,323.849,325.594Z" transform="translate(-301.158 -301.158)" fill="#b5b8be"/><path d="M323.849,376.794a.55.55,0,0,0,.582-.582v-1.164a.582.582,0,1,0-1.164,0v1.164A.55.55,0,0,0,323.849,376.794Z" transform="translate(-301.158 -348.867)" fill="#b5b8be"/><path d="M375.049,274.394a.55.55,0,0,0,.582-.582v-1.164a.582.582,0,0,0-1.164,0v1.164A.55.55,0,0,0,375.049,274.394Z" transform="translate(-348.867 -253.449)" fill="#b5b8be"/><path d="M375.049,223.194a.55.55,0,0,0,.582-.582v-1.164a.582.582,0,0,0-1.164,0v1.164A.55.55,0,0,0,375.049,223.194Z" transform="translate(-348.867 -205.74)" fill="#b5b8be"/><path d="M375.049,376.794a.55.55,0,0,0,.582-.582v-1.164a.582.582,0,1,0-1.164,0v1.164A.55.55,0,0,0,375.049,376.794Z" transform="translate(-348.867 -348.867)" fill="#b5b8be"/><path d="M375.049,325.594a.55.55,0,0,0,.582-.582v-1.164a.582.582,0,0,0-1.164,0v1.164A.55.55,0,0,0,375.049,325.594Z" transform="translate(-348.867 -301.158)" fill="#b5b8be"/><path d="M375.049,171.994a.55.55,0,0,0,.582-.582v-1.164a.582.582,0,0,0-1.164,0v1.164A.55.55,0,0,0,375.049,171.994Z" transform="translate(-348.867 -158.031)" fill="#b5b8be"/><path d="M84.916,291.461a.55.55,0,0,0,.582-.582v-1.164a.582.582,0,1,0-1.164,0v1.164A.55.55,0,0,0,84.916,291.461Z" transform="translate(-78.516 -269.352)" fill="#b5b8be"/><path d="M84.916,342.661a.55.55,0,0,0,.582-.582v-1.164a.582.582,0,1,0-1.164,0v1.164A.55.55,0,0,0,84.916,342.661Z" transform="translate(-78.516 -317.061)" fill="#b5b8be"/><path d="M84.916,393.861a.55.55,0,0,0,.582-.582v-1.164a.582.582,0,1,0-1.164,0v1.164A.55.55,0,0,0,84.916,393.861Z" transform="translate(-78.516 -364.77)" fill="#b5b8be"/><path d="M84.916,35.461a.55.55,0,0,0,.582-.582V33.716a.582.582,0,1,0-1.164,0v1.164A.55.55,0,0,0,84.916,35.461Z" transform="translate(-78.516 -30.807)" fill="#b5b8be"/><path d="M84.916,86.661a.55.55,0,0,0,.582-.582V84.916a.582.582,0,0,0-1.164,0v1.164A.55.55,0,0,0,84.916,86.661Z" transform="translate(-78.516 -78.516)" fill="#b5b8be"/><path d="M84.916,137.861a.55.55,0,0,0,.582-.582v-1.164a.582.582,0,1,0-1.164,0v1.164A.55.55,0,0,0,84.916,137.861Z" transform="translate(-78.516 -126.225)" fill="#b5b8be"/><path d="M84.916,189.061a.55.55,0,0,0,.582-.582v-1.164a.582.582,0,1,0-1.164,0v1.164A.55.55,0,0,0,84.916,189.061Z" transform="translate(-78.516 -173.934)" fill="#b5b8be"/><path d="M84.916,240.261a.55.55,0,0,0,.582-.582v-1.164a.582.582,0,1,0-1.164,0v1.164A.55.55,0,0,0,84.916,240.261Z" transform="translate(-78.516 -221.643)" fill="#b5b8be"/><path d="M136.116,86.661a.55.55,0,0,0,.582-.582V84.916a.582.582,0,1,0-1.164,0v1.164A.55.55,0,0,0,136.116,86.661Z" transform="translate(-126.225 -78.516)" fill="#b5b8be"/><path d="M136.116,35.461a.55.55,0,0,0,.582-.582V33.716a.582.582,0,1,0-1.164,0v1.164A.55.55,0,0,0,136.116,35.461Z" transform="translate(-126.225 -30.807)" fill="#b5b8be"/><path d="M136.116,189.061a.55.55,0,0,0,.582-.582v-1.164a.582.582,0,1,0-1.164,0v1.164A.55.55,0,0,0,136.116,189.061Z" transform="translate(-126.225 -173.934)" fill="#b5b8be"/><path d="M136.116,137.861a.55.55,0,0,0,.582-.582v-1.164a.582.582,0,1,0-1.164,0v1.164A.55.55,0,0,0,136.116,137.861Z" transform="translate(-126.225 -126.225)" fill="#b5b8be"/><path d="M136.116,240.261a.55.55,0,0,0,.582-.582v-1.164a.582.582,0,1,0-1.164,0v1.164A.55.55,0,0,0,136.116,240.261Z" transform="translate(-126.225 -221.643)" fill="#b5b8be"/><path d="M136.116,291.461a.55.55,0,0,0,.582-.582v-1.164a.582.582,0,1,0-1.164,0v1.164A.55.55,0,0,0,136.116,291.461Z" transform="translate(-126.225 -269.352)" fill="#b5b8be"/><path d="M136.116,342.661a.55.55,0,0,0,.582-.582v-1.164a.582.582,0,1,0-1.164,0v1.164A.55.55,0,0,0,136.116,342.661Z" transform="translate(-126.225 -317.061)" fill="#b5b8be"/><path d="M187.316,137.861a.55.55,0,0,0,.582-.582v-1.164a.582.582,0,0,0-1.164,0v1.164A.55.55,0,0,0,187.316,137.861Z" transform="translate(-173.934 -126.225)" fill="#b5b8be"/><path d="M187.316,86.661a.55.55,0,0,0,.582-.582V84.916a.582.582,0,0,0-1.164,0v1.164A.55.55,0,0,0,187.316,86.661Z" transform="translate(-173.934 -78.516)" fill="#b5b8be"/><path d="M187.316,35.461a.55.55,0,0,0,.582-.582V33.716a.582.582,0,1,0-1.164,0v1.164A.55.55,0,0,0,187.316,35.461Z" transform="translate(-173.934 -30.807)" fill="#b5b8be"/><path d="M187.316,342.661a.55.55,0,0,0,.582-.582v-1.164a.582.582,0,0,0-1.164,0v1.164A.55.55,0,0,0,187.316,342.661Z" transform="translate(-173.934 -317.061)" fill="#b5b8be"/><path d="M187.316,291.461a.55.55,0,0,0,.582-.582v-1.164a.582.582,0,0,0-1.164,0v1.164A.55.55,0,0,0,187.316,291.461Z" transform="translate(-173.934 -269.352)" fill="#b5b8be"/><path d="M187.316,240.261a.55.55,0,0,0,.582-.582v-1.164a.582.582,0,0,0-1.164,0v1.164A.55.55,0,0,0,187.316,240.261Z" transform="translate(-173.934 -221.643)" fill="#b5b8be"/><path d="M187.316,189.061a.55.55,0,0,0,.582-.582v-1.164a.582.582,0,1,0-1.164,0v1.164A.55.55,0,0,0,187.316,189.061Z" transform="translate(-173.934 -173.934)" fill="#b5b8be"/><path d="M238.516,86.661a.55.55,0,0,0,.582-.582V84.916a.582.582,0,0,0-1.164,0v1.164A.55.55,0,0,0,238.516,86.661Z" transform="translate(-221.643 -78.516)" fill="#b5b8be"/><path d="M238.516,35.461a.55.55,0,0,0,.582-.582V33.716a.582.582,0,1,0-1.164,0v1.164A.55.55,0,0,0,238.516,35.461Z" transform="translate(-221.643 -30.807)" fill="#b5b8be"/></g></svg>