<svg xmlns="http://www.w3.org/2000/svg" width="42.654" height="41.072" viewBox="0 0 42.654 41.072"><g transform="translate(0 -1.002)"><path d="M42.123,42.448l5.121-2.56L33.312,34.755l5.133,13.932,2.561-5.122,5.369,5.369a.79.79,0,0,0,1.117-1.117ZM35.979,37.42l7.292,2.687L40.2,41.642l-1.535,3.071Z" transform="translate(-6.999 -7.092)" fill="#b5b8be"/><path d="M42.3,2.712a.793.793,0,0,0-.741-.074L28.478,8.027l-13.1-6.935c-.01-.006-.022-.007-.032-.012a1.123,1.123,0,0,0-.185-.062.894.894,0,0,0-.122-.013c-.024,0-.048,0-.072,0a.833.833,0,0,0-.115.018c-.027.006-.053.009-.079.017l-.014,0L.54,5.78A.787.787,0,0,0,0,6.528V40.494a.788.788,0,0,0,.79.79.776.776,0,0,0,.25-.041l13.943-4.648,11.581,4.632a.779.779,0,0,0,.293.056.79.79,0,0,0,.293-1.524L15.8,35.22V3.1L27.646,9.373V23.115a.79.79,0,0,0,1.58,0V9.426L41.075,4.547V29.434a.79.79,0,1,0,1.58,0V3.368A.79.79,0,0,0,42.3,2.712ZM1.58,7.1,14.218,2.885v32.3L1.58,39.4Z" transform="translate(0 0)" fill="#b5b8be"/></g></svg>