<svg xmlns="http://www.w3.org/2000/svg" width="52.1" height="40.5" viewBox="0 0 52.1 40.5"><g transform="translate(-34.3 -42.5)"><line x2="11.3" transform="translate(54.7 64.7)" fill="none" stroke="#a36be3" stroke-linecap="round" stroke-miterlimit="10" stroke-width="2"/><line x2="11.3" transform="translate(54.7 68.2)" fill="none" stroke="#a36be3" stroke-linecap="round" stroke-miterlimit="10" stroke-width="2"/><path d="M79,69.4H72.6a1.11,1.11,0,0,1-1.1-1.1V64.5a1.11,1.11,0,0,1,1.1-1.1H79a1.11,1.11,0,0,1,1.1,1.1v3.8A1.11,1.11,0,0,1,79,69.4Z" fill="none" stroke="#a36be3" stroke-miterlimit="10" stroke-width="2"/><path d="M41.7,69.4h6.4a1.11,1.11,0,0,0,1.1-1.1V64.5a1.11,1.11,0,0,0-1.1-1.1H41.7a1.11,1.11,0,0,0-1.1,1.1v3.8A1.11,1.11,0,0,0,41.7,69.4Z" fill="none" stroke="#a36be3" stroke-miterlimit="10" stroke-width="2"/><path d="M81.9,56.1l-3.3-9.8a4.083,4.083,0,0,0-3.9-2.8H46a4.083,4.083,0,0,0-3.9,2.8l-3.3,9.8a3.543,3.543,0,0,0-3.5,3.5V75h50V59.5A3.311,3.311,0,0,0,81.9,56.1Z" fill="none" stroke="#a36be3" stroke-miterlimit="10" stroke-width="2"/><path d="M82.7,82H77.8a2.582,2.582,0,0,1-2.6-2.6V75H85.4v4.4A2.669,2.669,0,0,1,82.7,82Z" fill="none" stroke="#a36be3" stroke-miterlimit="10" stroke-width="2"/><path d="M38,82h4.9a2.582,2.582,0,0,0,2.6-2.6V75H35.4v4.4A2.582,2.582,0,0,0,38,82Z" fill="none" stroke="#a36be3" stroke-miterlimit="10" stroke-width="2"/><line x2="43.1" transform="translate(38.8 56.1)" fill="none" stroke="#a36be3" stroke-miterlimit="10" stroke-width="2"/><path d="M64.2,56.1a6.6,6.6,0,0,1,13.2,0" fill="none" stroke="#a36be3" stroke-miterlimit="10" stroke-width="2"/></g></svg>