<svg xmlns="http://www.w3.org/2000/svg" width="52.008" height="52.6" viewBox="0 0 52.008 52.6"><g transform="translate(-32.5 -35.9)"><ellipse cx="7.2" cy="9.6" rx="7.2" ry="9.6" transform="translate(33.5 36.9)" fill="none" stroke="#a36be3" stroke-linecap="round" stroke-miterlimit="10" stroke-width="2"/><path d="M38.9,55.8,36.7,83.1a4.071,4.071,0,0,0,4.1,4.4h0a4.071,4.071,0,0,0,4.1-4.4L42.7,55.8" fill="none" stroke="#a36be3" stroke-linecap="round" stroke-miterlimit="10" stroke-width="2"/><path d="M59.1,56.1l-2.2,27A4.071,4.071,0,0,0,61,87.5h0a4.071,4.071,0,0,0,4.1-4.4l-2.2-27" fill="none" stroke="#a36be3" stroke-linecap="round" stroke-miterlimit="10" stroke-width="2"/><path d="M66.5,36.9V54.1A1.9,1.9,0,0,1,64.6,56H57.3a1.9,1.9,0,0,1-1.9-1.9V36.9" fill="none" stroke="#a36be3" stroke-linecap="round" stroke-miterlimit="10" stroke-width="2"/><line x2="11.1" transform="translate(55.4 51.6)" fill="none" stroke="#a36be3" stroke-linecap="round" stroke-miterlimit="10" stroke-width="2"/><line y2="14.7" transform="translate(61 36.9)" fill="none" stroke="#a36be3" stroke-linecap="round" stroke-miterlimit="10" stroke-width="2"/><path d="M81.2,87.5h0a2.433,2.433,0,0,1-2.4-2.4V66.8h4.7V85.1A2.286,2.286,0,0,1,81.2,87.5Z" fill="none" stroke="#a36be3" stroke-linecap="round" stroke-miterlimit="10" stroke-width="2"/><path d="M83.6,66.8H76V44.5A7.555,7.555,0,0,1,83.5,37h0V66.8Z" fill="none" stroke="#a36be3" stroke-linecap="round" stroke-miterlimit="10" stroke-width="2"/></g></svg>