<svg xmlns="http://www.w3.org/2000/svg" width="52.428" height="48.041" viewBox="0 0 52.428 48.041"><g transform="translate(11.407 16.672)"><path d="M116.159,184.4a.768.768,0,0,0-1.08.113,1.428,1.428,0,0,1-2.317,0,.768.768,0,1,0-1.193.967,2.961,2.961,0,0,0,4.7,0A.768.768,0,0,0,116.159,184.4Z" transform="translate(-111.397 -184.231)" fill="#232d41"/></g><g transform="translate(9.652 12.284)"><path d="M95.027,141.386a.768.768,0,0,0-.768.768v.877a.768.768,0,0,0,1.536,0v-.877A.768.768,0,0,0,95.027,141.386Z" transform="translate(-94.259 -141.386)" fill="#232d41"/></g><g transform="translate(16.672 12.284)"><path d="M163.579,141.386a.768.768,0,0,0-.768.768v.877a.768.768,0,0,0,1.536,0v-.877A.768.768,0,0,0,163.579,141.386Z" transform="translate(-162.811 -141.386)" fill="#232d41"/></g><g transform="translate(36.853 21.059)"><path d="M364.659,227.246a.768.768,0,0,0-1.08.113,1.428,1.428,0,0,1-2.317,0,.768.768,0,1,0-1.193.967,2.96,2.96,0,0,0,4.7,0A.768.768,0,0,0,364.659,227.246Z" transform="translate(-359.898 -227.075)" fill="#232d41"/></g><g transform="translate(35.098 16.672)"><path d="M343.527,184.231a.768.768,0,0,0-.768.768v.877a.768.768,0,0,0,1.536,0V185A.768.768,0,0,0,343.527,184.231Z" transform="translate(-342.759 -184.231)" fill="#232d41"/></g><g transform="translate(42.118 16.672)"><path d="M412.079,184.231a.768.768,0,0,0-.768.768v.877a.768.768,0,0,0,1.536,0V185A.768.768,0,0,0,412.079,184.231Z" transform="translate(-411.311 -184.231)" fill="#232d41"/></g><g transform="translate(0 0)"><path d="M50.29,53.279l-6.017-2.407a1.007,1.007,0,0,1-.093-.046,15.892,15.892,0,0,0,6.211-2.6.768.768,0,0,0,.274-.7A99.492,99.492,0,0,1,49.8,35.35a10.42,10.42,0,1,0-20.84,0c0,1.574-.071,3.5-.188,5.323l-1.677.838L22.17,39.05c-.014-.007-.029-.012-.043-.018a8.6,8.6,0,0,0,.443-2.148,2.521,2.521,0,0,0,.9-4.321v-5.11a4.274,4.274,0,0,0-1.883-3.526,3.376,3.376,0,0,0-3.272-2.507H11.3a6.918,6.918,0,0,0-6.91,6.91v4.232a2.521,2.521,0,0,0,.9,4.321,8.662,8.662,0,0,0,3.485,6.3v2.123L2.423,47.213A3.379,3.379,0,0,0,0,50.47v8.571a.768.768,0,0,0,.768.768H.877v8.884a.768.768,0,1,0,1.536,0V59.809H5.265v8.884a.768.768,0,1,0,1.536,0V55.451a3.39,3.39,0,0,0-.571-1.886L4.917,51.6a.768.768,0,1,0-1.278.852l1.313,1.969a1.858,1.858,0,0,1,.313,1.034v2.822H1.536v-7.8a1.853,1.853,0,0,1,1.329-1.786L5.5,47.893a8.666,8.666,0,0,0,12.535,5.616,2.52,2.52,0,0,0,2.035,1.035h.109v.109a6.913,6.913,0,0,0,3.51,6.012v1.253a.109.109,0,0,1-.075.1l-2.865.955A3.4,3.4,0,0,0,18.426,66.2v2.49a.768.768,0,1,0,1.536,0V66.2a1.862,1.862,0,0,1,1.275-1.769l.842-.281a6.033,6.033,0,0,0,10.024,0l.842.281A1.862,1.862,0,0,1,34.22,66.2v2.49a.768.768,0,1,0,1.536,0V66.2a3.4,3.4,0,0,0-2.325-3.226l-2.865-.955a.109.109,0,0,1-.075-.1V60.666a6.938,6.938,0,0,0,3.251-4.145,7.787,7.787,0,0,0,13.045-2.988L49.72,54.7a1.855,1.855,0,0,1,1.172,1.731v3.592H48.04v-.987a.768.768,0,1,0-1.536,0v9.652a.768.768,0,0,0,1.536,0V61.564h1.974v7.129a.768.768,0,0,0,1.536,0V61.564h.109a.768.768,0,0,0,.768-.768v-4.36A3.383,3.383,0,0,0,50.29,53.279ZM30.492,35.35a8.884,8.884,0,1,1,17.768,0,100.833,100.833,0,0,0,.823,11.927,16.441,16.441,0,0,1-5.429,2.094V48.148a8.6,8.6,0,0,0,1.166-.792,8.645,8.645,0,0,0,3.222-6.742c0-4.341-3.139-4.964-6.175-5.567A12.32,12.32,0,0,1,36.346,33a.768.768,0,0,0-1.248.6c0,.02-.033,2.041-2.928,2.765a.768.768,0,0,0,.373,1.49,5.082,5.082,0,0,0,3.814-2.986,16.085,16.085,0,0,0,5.21,1.69c3.245.644,4.938,1.117,4.938,4.06a7.109,7.109,0,0,1-2.651,5.548,7.128,7.128,0,0,1-8.627.249,8.678,8.678,0,0,0-2.1-3.241V39.737a.768.768,0,0,0-1.111-.687l-1.658.829C30.445,38.28,30.492,36.759,30.492,35.35Zm1.1,5.63v2.779l-2.779-1.39Zm-8.993,0,2.779,1.39-2.779,1.39Zm-4.168,8.409v.729a2.523,2.523,0,0,0-.877,1.9,7.129,7.129,0,0,1-10.573-4.57l1.9-.569A5.154,5.154,0,0,0,18.5,48.258,8.635,8.635,0,0,0,18.426,49.389ZM10.31,45.878V44.1a8.653,8.653,0,0,0,7.239,0v1.78a3.619,3.619,0,0,1-7.238.01S10.31,45.881,10.31,45.878Zm3.619-2.522A7.137,7.137,0,0,1,6.8,36.227a.768.768,0,0,0-.768-.768.987.987,0,1,1,0-1.974H7.788a.768.768,0,0,0,.729-.525l.7-2.115c1.765-.04,7.236-.288,10.317-1.828a.768.768,0,1,0-.687-1.374C15.545,29.3,8.733,29.317,8.665,29.317a.768.768,0,0,0-.728.525l-.7,2.107h-1.2l-.109,0V28.33A5.38,5.38,0,0,1,11.3,22.956h7.02a1.851,1.851,0,0,1,1.832,1.572.768.768,0,0,0,.381.548,2.742,2.742,0,0,1,1.406,2.377v4.5l-.109,0h-.877a.768.768,0,1,0,0,1.536h.877a.987.987,0,1,1,0,1.974.768.768,0,0,0-.768.768A7.137,7.137,0,0,1,13.93,43.356Zm5.155,2.523V43.185a8.735,8.735,0,0,0,1.974-2.041V43.17a8.677,8.677,0,0,0-1.979,2.923C19.082,46.022,19.085,45.951,19.085,45.879ZM30.571,63.642a4.493,4.493,0,0,1-6.958,0l.489-.163a1.643,1.643,0,0,0,1.125-1.561v-.612a6.875,6.875,0,0,0,3.729,0v.612a1.643,1.643,0,0,0,1.125,1.561Zm2.663-10.634a.768.768,0,0,0-.768.768v.764c0,.007,0,.013,0,.02v.094a5.374,5.374,0,0,1-10.748,0v-.877a.768.768,0,0,0-.768-.768h-.877a.988.988,0,0,1-.987-.987.976.976,0,0,1,.5-.848.763.763,0,0,0,.182-.149c1.9-.055,8.052-.412,12.1-2.723a.768.768,0,1,0-.762-1.334c-3.543,2.025-9.111,2.43-11.135,2.511v-.089a7.136,7.136,0,0,1,1.216-3.978.766.766,0,0,0,.992.278l4.921-2.461,4.921,2.461A.764.764,0,0,0,33,45.411a7.136,7.136,0,0,1,1.216,3.978V50.51a.768.768,0,0,0,.382.664.976.976,0,0,1,.5.848.988.988,0,0,1-.987.987ZM39.376,57.4a6.26,6.26,0,0,1-5.247-2.852,2.516,2.516,0,0,0,1.628-4.425v-.729a8.635,8.635,0,0,0-.049-.921,8.659,8.659,0,0,0,6.41.363v1.125A2.511,2.511,0,0,0,43.7,52.3l1.656.662A6.248,6.248,0,0,1,39.376,57.4Z" transform="translate(0 -21.42)" fill="#232d41"/></g><g transform="translate(24.569 34.22)"><path d="M244.694,355.781a.768.768,0,0,0-1.08.113,1.428,1.428,0,0,1-2.317,0,.768.768,0,1,0-1.193.967,2.961,2.961,0,0,0,4.7,0A.768.768,0,0,0,244.694,355.781Z" transform="translate(-239.932 -355.61)" fill="#232d41"/></g><g transform="translate(23.705 30.714)"><ellipse cx="0.768" cy="0.768" rx="0.768" ry="0.768" fill="#232d41"/></g><g transform="translate(28.928 30.714)"><ellipse cx="0.768" cy="0.768" rx="0.768" ry="0.768" fill="#232d41"/></g></svg>