<svg width="27.127" height="18.815" viewBox="0 0 27.127 18.815">
  <g id="menu" transform="translate(0 -78.439)">
    <g id="Group_1737" data-name="Group 1737" transform="translate(0 86.751)">
      <g id="Group_1736" data-name="Group 1736">
        <path id="Path_2818" data-name="Path 2818" d="M26.031,235.318H1.1a1.1,1.1,0,0,0,0,2.192H26.031a1.1,1.1,0,0,0,0-2.192Z" transform="translate(0 -235.318)" fill="#232d41"/>
      </g>
    </g>
    <g id="Group_1739" data-name="Group 1739" transform="translate(0 78.439)">
      <g id="Group_1738" data-name="Group 1738">
        <path id="Path_2819" data-name="Path 2819" d="M26.031,78.439H1.1a1.1,1.1,0,1,0,0,2.192H26.031a1.1,1.1,0,1,0,0-2.192Z" transform="translate(0 -78.439)" fill="#232d41"/>
      </g>
    </g>
    <g id="Group_1741" data-name="Group 1741" transform="translate(0 95.062)">
      <g id="Group_1740" data-name="Group 1740">
        <path id="Path_2820" data-name="Path 2820" d="M26.031,392.2H1.1a1.1,1.1,0,1,0,0,2.192H26.031a1.1,1.1,0,1,0,0-2.192Z" transform="translate(0 -392.197)" fill="#232d41"/>
      </g>
    </g>
  </g>
</svg>
