<svg xmlns="http://www.w3.org/2000/svg" width="37.124" height="66.413" viewBox="0 0 37.124 66.413"><g transform="translate(0.412)"><path d="M29,12.1H7.3A6.338,6.338,0,0,0,1,18.4v34a6.274,6.274,0,0,0,6.3,6.3H29a6.274,6.274,0,0,0,6.3-6.3v-34A6.338,6.338,0,0,0,29,12.1Z" fill="none" stroke="#ff4641" stroke-miterlimit="10" stroke-width="2"/><circle cx="2.1" cy="2.1" r="2.1" transform="translate(5.1 50.8)" fill="none" stroke="#ff4641" stroke-miterlimit="10" stroke-width="2"/><circle cx="2.1" cy="2.1" r="2.1" transform="translate(27 50.8)" fill="none" stroke="#ff4641" stroke-miterlimit="10" stroke-width="2"/><line x1="34.3" transform="translate(1 45.8)" fill="none" stroke="#ff4641" stroke-miterlimit="10" stroke-width="2"/><line x2="34.3" transform="translate(1 20.2)" fill="none" stroke="#ff4641" stroke-miterlimit="10" stroke-width="2"/><line x2="8.4" transform="translate(15.5 16.2)" fill="none" stroke="#ff4641" stroke-linecap="round" stroke-miterlimit="10" stroke-width="2"/><line x2="0.6" transform="translate(12.4 16.2)" fill="none" stroke="#ff4641" stroke-linecap="round" stroke-miterlimit="10" stroke-width="2"/><line x1="7" y2="6.3" transform="translate(1 58.7)" fill="none" stroke="#ff4641" stroke-linecap="round" stroke-miterlimit="10" stroke-width="2"/><line x2="7" y2="6.3" transform="translate(28.3 58.7)" fill="none" stroke="#ff4641" stroke-linecap="round" stroke-miterlimit="10" stroke-width="2"/><line y2="25.6" transform="translate(18.2 20.2)" fill="none" stroke="#ff4641" stroke-miterlimit="10" stroke-width="2"/><line y1="11.1" transform="translate(18.2 1)" fill="none" stroke="#ff4641" stroke-linecap="round" stroke-miterlimit="10" stroke-width="2"/><line x2="11.5" transform="translate(12.4 1)" fill="none" stroke="#ff4641" stroke-linecap="round" stroke-miterlimit="10" stroke-width="2"/></g></svg>