<svg xmlns="http://www.w3.org/2000/svg" width="27.267" height="25.904" viewBox="0 0 27.267 25.904"><path d="M26.54,7.453H22.45V4.727A2.717,2.717,0,0,0,19.723,2h-8.18A2.717,2.717,0,0,0,8.817,4.727V7.453H4.727A2.717,2.717,0,0,0,2,10.18v15A2.717,2.717,0,0,0,4.727,27.9H26.54a2.717,2.717,0,0,0,2.727-2.727v-15A2.717,2.717,0,0,0,26.54,7.453Zm-15-2.727h8.18V7.453h-8.18Zm15,20.45H4.727V22.45H26.54Zm0-6.817H4.727V10.18h4.09v2.727h2.727V10.18h8.18v2.727H22.45V10.18h4.09Z" transform="translate(-2 -2)" fill="#232d41"/></svg>