<svg xmlns="http://www.w3.org/2000/svg" width="39.297" height="38.648" viewBox="0 0 39.297 38.648"><g transform="translate(0)"><path d="M38.384,120.514l-8.256,3.538v-2.936a.655.655,0,0,0-.913-.6l-9.046,3.877h-1.83V119.4a1.556,1.556,0,0,0-1.557-1.557H14.656A1.556,1.556,0,0,0,13.1,119.4v4.993H10.432L9.167,107.314a.655.655,0,0,0-.653-.607H4.584a.655.655,0,0,0-.653.607L2.666,124.391h-.7a.655.655,0,0,0-.651.583L0,136.763a.655.655,0,0,0,.651.727H38.642a.655.655,0,0,0,.655-.655V121.116A.655.655,0,0,0,38.384,120.514ZM14.409,119.4a.246.246,0,0,1,.247-.247h2.126a.246.246,0,0,1,.247.247v4.993h-2.62Zm-.655,6.3h5.895V136.18H13.03L11.866,125.7ZM5.193,108.017H7.906l1.213,16.374H3.98ZM2.551,125.7h8l.518,4.661.646,5.818H9.169V131.6a.655.655,0,0,0-.655-.655H4.585a.655.655,0,0,0-.655.655v4.585H1.387ZM5.239,136.18v-3.93h2.62v3.93Zm15.719-10.7,7.859-3.368V136.18H26.853v-3.93a.655.655,0,0,0-.655-.655h-2.62a.655.655,0,0,0-.655.655v3.93H20.958v-10.7Zm3.275,10.7v-3.275h1.31v3.275Zm10.479,0H33.4v-3.275h1.31Zm3.275,0H36.022v-3.93a.655.655,0,0,0-.655-.655h-2.62a.655.655,0,0,0-.655.655v3.93H30.128v-10.7l7.859-3.368V136.18Z" transform="translate(0 -98.842)" fill="#b5b8be"/><path d="M86.213,10.739c.044-.017.134-.05.261-.093.215-.073.452-.147.7-.215a8.9,8.9,0,0,1,1.5-.285c1.161-.106,1.779.138,1.9.76a6.568,6.568,0,0,0,.139.744,8.307,8.307,0,0,0,.6,1.711,4.162,4.162,0,0,0,3.836,2.662,12.22,12.22,0,0,0,2.058-.1,3.888,3.888,0,0,0,2.05-.759,7.828,7.828,0,0,0,2.843,1.921,3.776,3.776,0,0,0,1.57.253,5.988,5.988,0,0,0,3.66-1.456,9.5,9.5,0,0,0,.977-.9,4.578,4.578,0,0,0,3.193,1.044c.229-.006.392-.008.55-.012a5.621,5.621,0,0,0,4.015-9.478c-.078-.08-.137-.138-.175-.172a.655.655,0,0,0-1.093.487c0,1.714-.4,2.653-1.017,3.062a1.3,1.3,0,0,1-.832.222l-.115-.009c-1.227,0-2.485-1.124-3.542-2.779A7.869,7.869,0,0,0,107.054,5a3.525,3.525,0,0,0-2.124-.767A5.784,5.784,0,0,0,101,5.711c-.14.126-.269.252-.386.376A2.715,2.715,0,0,0,99.3,5.151a4.435,4.435,0,0,0-1.535-.262,9.29,9.29,0,0,0-3.776.711,5.189,5.189,0,0,0-1.047.6H91.869a7.324,7.324,0,0,0-5.2,1.815,4.867,4.867,0,0,0-1.317,1.909A.655.655,0,0,0,86.213,10.739Zm5.657-3.23h1.31a.655.655,0,0,0,.46-.188,3.235,3.235,0,0,1,.878-.523,8,8,0,0,1,3.248-.6,3.214,3.214,0,0,1,1.086.183,1.122,1.122,0,0,1,.879,1.127.655.655,0,0,0,1.244.286,2.753,2.753,0,0,1,.2-.321,4.535,4.535,0,0,1,.7-.786,4.487,4.487,0,0,1,3.1-1.143l.119-.011c-.006,0,.083.011.233.054a3.715,3.715,0,0,1,1.006.5,6.577,6.577,0,0,1,1.856,1.965c1.27,1.988,2.8,3.36,4.6,3.383a2.6,2.6,0,0,0,1.718-.431,3.6,3.6,0,0,0,1.434-2.374,4.346,4.346,0,0,1-3.919,6.075q-.241.006-.5.006l-.1.007a2.876,2.876,0,0,1-.891-.077,3.679,3.679,0,0,1-1.507-.76q-.162-.133-.317-.288a.655.655,0,0,0-.983.065c-.051.066-.157.193-.313.362a8.228,8.228,0,0,1-.9.834,4.685,4.685,0,0,1-2.852,1.168l-.11.009a2.535,2.535,0,0,1-1.012-.182,6.515,6.515,0,0,1-2.345-1.6l-.655-.655-1.31-1.31a.655.655,0,0,0-.926.926l1.009,1.009a2.992,2.992,0,0,1-1.294.4,10.766,10.766,0,0,1-1.747.092l-.094,0a2.906,2.906,0,0,1-2.688-1.924,7.019,7.019,0,0,1-.5-1.441,5.886,5.886,0,0,1-.12-.639c-.288-1.525-1.564-2.03-3.311-1.87A9.056,9.056,0,0,0,87.537,9,6.043,6.043,0,0,1,91.869,7.509Z" transform="translate(-78.77 -4.228)" fill="#b5b8be"/><path d="M179.856,386.324a.655.655,0,0,0,.655-.655v-5.24a.655.655,0,1,0-1.31,0v5.24A.655.655,0,0,0,179.856,386.324Z" transform="translate(-165.447 -350.95)" fill="#b5b8be"/><path d="M222.523,386.324a.655.655,0,0,0,.655-.655v-5.24a.655.655,0,1,0-1.31,0v5.24A.655.655,0,0,0,222.523,386.324Z" transform="translate(-204.839 -350.95)" fill="#b5b8be"/><path d="M299.323,358.1h2.62a.655.655,0,0,0,.655-.655v-2.62a.655.655,0,0,0-.655-.655h-2.62a.655.655,0,0,0-.655.655v2.62A.655.655,0,0,0,299.323,358.1Zm.655-2.62h1.31v1.31h-1.31Z" transform="translate(-275.745 -327.316)" fill="#b5b8be"/><path d="M418.79,358.1h2.62a.655.655,0,0,0,.655-.655v-2.62a.655.655,0,0,0-.655-.655h-2.62a.655.655,0,0,0-.655.655v2.62A.655.655,0,0,0,418.79,358.1Zm.655-2.62h1.31v1.31h-1.31Z" transform="translate(-386.042 -327.316)" fill="#b5b8be"/></g></svg>