<svg xmlns="http://www.w3.org/2000/svg" width="41.908" height="55.5" viewBox="0 0 41.908 55.5"><g transform="translate(-39 -36.2)"><path d="M68.2,71.2a4.6,4.6,0,0,1,9.2,0" fill="none" stroke="#a36be3" stroke-miterlimit="10" stroke-width="2"/><line x2="7.8" transform="translate(56.1 76.4)" fill="none" stroke="#a36be3" stroke-linecap="round" stroke-miterlimit="10" stroke-width="2"/><line x2="7.8" transform="translate(56.1 80.6)" fill="none" stroke="#a36be3" stroke-linecap="round" stroke-miterlimit="10" stroke-width="2"/><path d="M75.5,90.7H72.1a1.793,1.793,0,0,1-1.8-1.8V84.4h7.1v4.5A1.953,1.953,0,0,1,75.5,90.7Z" fill="none" stroke="#a36be3" stroke-miterlimit="10" stroke-width="2"/><path d="M44.5,90.7h3.4a1.793,1.793,0,0,0,1.8-1.8V84.4H42.6v4.5A1.953,1.953,0,0,0,44.5,90.7Z" fill="none" stroke="#a36be3" stroke-miterlimit="10" stroke-width="2"/><path d="M77.7,37.2H42.3A2.263,2.263,0,0,0,40,39.5V82a2.263,2.263,0,0,0,2.3,2.3H77.6A2.263,2.263,0,0,0,79.9,82V39.5A2.126,2.126,0,0,0,77.7,37.2Z" fill="none" stroke="#a36be3" stroke-miterlimit="10" stroke-width="2"/><circle cx="2.1" cy="2.1" r="2.1" transform="translate(44.1 76.4)" fill="none" stroke="#a36be3" stroke-miterlimit="10" stroke-width="2"/><circle cx="2.1" cy="2.1" r="2.1" transform="translate(71.7 76.4)" fill="none" stroke="#a36be3" stroke-miterlimit="10" stroke-width="2"/><line x1="40" transform="translate(40 71.2)" fill="none" stroke="#a36be3" stroke-miterlimit="10" stroke-width="2"/><line x2="40" transform="translate(40 45.3)" fill="none" stroke="#a36be3" stroke-miterlimit="10" stroke-width="2"/><line x2="8.5" transform="translate(57.3 41.3)" fill="none" stroke="#a36be3" stroke-linecap="round" stroke-miterlimit="10" stroke-width="2"/><line x2="0.6" transform="translate(54.2 41.3)" fill="none" stroke="#a36be3" stroke-linecap="round" stroke-miterlimit="10" stroke-width="2"/></g></svg>