<svg xmlns="http://www.w3.org/2000/svg" width="43.073" height="34.635" viewBox="0 0 43.073 34.635"><g transform="translate(0 0)"><path d="M226.394,350.093a.567.567,0,0,0,.285-1.057l-.277-.161a.567.567,0,0,0-.569.981l.277.16A.565.565,0,0,0,226.394,350.093Z" transform="translate(-206.577 -323.676)" fill="#b5b8be"/><path d="M210.238,339.49l-.277-.16a.567.567,0,1,0-.569.981l.277.16a.567.567,0,1,0,.569-.981Z" transform="translate(-191.519 -314.933)" fill="#b5b8be"/><path d="M193.79,329.944l-.277-.161a.567.567,0,0,0-.569.981l.277.16a.567.567,0,1,0,.569-.981Z" transform="translate(-176.455 -306.19)" fill="#b5b8be"/><path d="M177.349,320.4l-.277-.16a.567.567,0,0,0-.569.981l.277.161a.567.567,0,0,0,.569-.981Z" transform="translate(-161.397 -297.446)" fill="#b5b8be"/><path d="M160.9,310.852l-.277-.161a.567.567,0,0,0-.569.981l.277.16a.567.567,0,1,0,.569-.981Z" transform="translate(-146.333 -288.704)" fill="#b5b8be"/><path d="M144.46,301.3l-.277-.161a.567.567,0,0,0-.569.981l.277.161a.567.567,0,0,0,.569-.981Z" transform="translate(-131.274 -279.959)" fill="#b5b8be"/><path d="M128.013,291.758l-.277-.161a.567.567,0,0,0-.569.981l.277.16a.567.567,0,1,0,.569-.981Z" transform="translate(-116.211 -271.216)" fill="#b5b8be"/><path d="M111.574,282.215l-.276-.16a.567.567,0,1,0-.57.98l.276.161a.567.567,0,1,0,.57-.98Z" transform="translate(-101.155 -262.476)" fill="#b5b8be"/><path d="M95.128,272.671l-.277-.161a.567.567,0,1,0-.57.98l.277.161a.567.567,0,0,0,.57-.98Z" transform="translate(-86.092 -253.734)" fill="#b5b8be"/><path d="M69.063,257.886l-1.106-.643a.566.566,0,1,0-.569.98l.276.161-.336.2a.567.567,0,0,0,.583.972l1.16-.7a.566.566,0,0,0-.007-.976Z" transform="translate(-61.411 -239.753)" fill="#b5b8be"/><path d="M365.345,227.322l.277.16a.567.567,0,0,0,.569-.981l-.277-.161a.567.567,0,0,0-.569.981Z" transform="translate(-334.353 -211.45)" fill="#b5b8be"/><path d="M381.786,236.868l.553.321a.567.567,0,0,0,.569-.981l-.553-.321a.567.567,0,0,0-.569.981Z" transform="translate(-349.411 -220.193)" fill="#b5b8be"/><path d="M402.368,247.5l-.277-.16a.567.567,0,1,0-.569.981l.277.161a.567.567,0,1,0,.569-.981Z" transform="translate(-367.487 -230.683)" fill="#b5b8be"/><path d="M419.643,249.952l-.276-.16.337-.2a.567.567,0,0,0-.583-.972l-1.161.7a.567.567,0,0,0,.007.976l1.107.642a.567.567,0,1,0,.569-.981Z" transform="translate(-382.548 -231.849)" fill="#b5b8be"/><path d="M397.546,267.251h0l-.29.174a.566.566,0,1,0,.582.972l.29-.174a.566.566,0,0,0-.582-.972Z" transform="translate(-363.584 -248.915)" fill="#b5b8be"/><path d="M380.34,277.58h0l-.29.174a.567.567,0,0,0,.585.972l.29-.174a.567.567,0,0,0-.585-.972Z" transform="translate(-347.83 -258.374)" fill="#b5b8be"/><path d="M363.068,287.941l-.29.174a.566.566,0,1,0,.582.972l.29-.174a.566.566,0,0,0-.582-.972Z" transform="translate(-332.007 -267.865)" fill="#b5b8be"/><path d="M345.84,298.266l-.291.174a.567.567,0,1,0,.582.973l.291-.174a.567.567,0,1,0-.582-.973Z" transform="translate(-316.228 -277.321)" fill="#b5b8be"/><path d="M329.175,308.594a.567.567,0,0,0-.567.011l-.29.174a.567.567,0,0,0,.585.972l.29-.174a.567.567,0,0,0-.017-.983Z" transform="translate(-300.448 -286.788)" fill="#b5b8be"/><path d="M311.919,318.941a.567.567,0,0,0-.568.011l-.29.174a.566.566,0,1,0,.582.972l.29-.174a.567.567,0,0,0-.015-.982Z" transform="translate(-284.64 -296.265)" fill="#b5b8be"/><path d="M294.676,329.283a.566.566,0,0,0-.568.011l-.29.174a.566.566,0,1,0,.582.972l.29-.174a.566.566,0,0,0-.015-.982Z" transform="translate(-268.848 -305.737)" fill="#b5b8be"/><path d="M277.458,339.627a.567.567,0,0,0-.567.011l-.29.174a.567.567,0,0,0,.584.972l.29-.174a.567.567,0,0,0-.017-.983Z" transform="translate(-253.082 -315.211)" fill="#b5b8be"/><path d="M259.647,349.988l-.29.174a.567.567,0,0,0,.584.972l.29-.174a.567.567,0,0,0-.584-.972Z" transform="translate(-237.288 -324.691)" fill="#b5b8be"/><path d="M133.128,233a.567.567,0,0,0,.292-.081l.29-.174a.567.567,0,1,0-.584-.972l-.29.174a.567.567,0,0,0,.293,1.053Z" transform="translate(-121.409 -216.417)" fill="#b5b8be"/><path d="M118.618,259.649Z" transform="translate(-108.64 -242.026)" fill="#b5b8be"/><path d="M112.446,243.515a.561.561,0,0,0,.291-.081l.58-.348a.566.566,0,1,0-.582-.972l-.58.348a.567.567,0,0,0,.292,1.053Z" transform="translate(-102.467 -225.892)" fill="#b5b8be"/><path d="M95.2,255.752a.566.566,0,0,0,.292-.081l.29-.174a.567.567,0,1,0-.584-.972l-.29.174a.567.567,0,0,0,.293,1.053Z" transform="translate(-86.672 -237.258)" fill="#b5b8be"/><path d="M234.617,360.974l-1.107-.642a.568.568,0,0,0-.576,0l-1.16.7a.567.567,0,0,0,.583.972l.873-.524.817.474a.567.567,0,1,0,.569-.981Z" transform="translate(-212.025 -334.169)" fill="#b5b8be"/><path d="M43.029,67.737l-.011-.027a.563.563,0,0,0-.227-.256l-12.02-6.977-5.7-10.041,0,0h0l-.006-.007a.563.563,0,0,0-.142-.161c-.008-.006-.018-.007-.026-.013a.565.565,0,0,0-.168-.082.571.571,0,0,0-.1-.008.557.557,0,0,0-.111-.008.567.567,0,0,0-.192.063c-.007,0-.014,0-.02.007h0l-6.844,3.951s0,.005-.008.007l-.009,0-7.012,4.382a.567.567,0,0,0-.194.757l1.321,2.369L.278,68.45a.567.567,0,0,0-.094.075c-.007.006-.014.01-.021.016a.561.561,0,0,0-.1.149.54.54,0,0,0-.025.062.558.558,0,0,0-.029.146c0,.014-.008.025-.008.039v3.4a.533.533,0,0,0,.018.089.552.552,0,0,0,.016.081.545.545,0,0,0,.062.128.535.535,0,0,0,.04.059.551.551,0,0,0,.113.1c.013.009.021.023.036.032l20.47,11.884c.013.007.026.01.039.016a.558.558,0,0,0,.057.024.566.566,0,0,0,.168.034c.007,0,.014,0,.021,0s.018,0,.027-.006a.561.561,0,0,0,.158-.032.551.551,0,0,0,.069-.029c.012-.006.025-.009.037-.016L42.8,71.831a.534.534,0,0,0,.061-.055.6.6,0,0,0,.173-.241.552.552,0,0,0,.029-.145c0-.016.009-.03.009-.046V67.963c0-.008,0-.015,0-.022A.562.562,0,0,0,43.029,67.737ZM24.364,51.492l6.567,11.562-5.861,3.384L18.5,54.877Zm3.964,14.374V69.1l-5.713,3.3V68.414l.089.151a.566.566,0,0,0,.793.19L25.15,67.7ZM11.475,59.244l6.054-3.783L24.1,67.026l-.717.458-5.165-8.766a.567.567,0,0,0-.768-.205l-4.85,2.75Zm7.568,7.977-2.194-1.266a.567.567,0,0,0-.85.491v2.792l-2.158-1.246V61.862l3.683-2.088L21.5,66.525a.537.537,0,0,0-.021.1V72.4l-2.155-1.244V67.712A.567.567,0,0,0,19.043,67.221Zm-.85.818V70.5l-1.06-.612V67.427Zm2.281,15.2L1.133,72.009V69.919l19.34,11.228Zm.561-3.074L1.685,68.929l10.577-6.344a.568.568,0,0,0,.4-.055l.045-.025v5.815a.567.567,0,0,0,.283.491l3.292,1.9h0l.152.088,5.33,3.077h0a.552.552,0,0,0,.1.041c.013,0,.025.012.038.015a.576.576,0,0,0,.1.013c.016,0,.031.006.047.006h0a.564.564,0,0,0,.283-.076l6.844-3.952a795.961,795.961,0,0,1,.147-.129.782.782,0,0,0,.1-.188.547.547,0,0,0,.017-.085.539.539,0,0,0,.018-.089V65.211l.081-.047a.533.533,0,0,0,.066.059l.277.161a.566.566,0,0,0,.73-.838l1.371-.791a.567.567,0,0,0,.208-.774l0,0-.307-.541,9.51,5.519Zm20.9-9.137L21.607,83.219V81.141l20.33-12.194v2.079Z" transform="translate(0 -50.154)" fill="#b5b8be"/></g></svg>