<svg xmlns="http://www.w3.org/2000/svg" width="42.92" height="54.285" viewBox="0 0 42.92 54.285"><path d="M194.244,151.719a.8.8,0,0,0-.795.8v2.335a1.164,1.164,0,0,0,1.162,1.162h.769a.795.795,0,1,0,0-1.59h-.341v-1.907A.8.8,0,0,0,194.244,151.719Zm0,0" transform="translate(-172.991 -135.633)" fill="#232d41"/><path d="M162.847,209.114a.8.8,0,0,0-.247,1.1,5.227,5.227,0,0,0,8.326,0,.8.8,0,1,0-1.344-.85,3.66,3.66,0,0,1-5.639,0A.8.8,0,0,0,162.847,209.114Zm0,0" transform="translate(-145.303 -186.832)" fill="#232d41"/><path d="M245.816,133.094a.795.795,0,0,0,1.59,0V132.03a.795.795,0,1,0-1.59,0Zm0,0" transform="translate(-219.806 -117.321)" fill="#232d41"/><path d="M145.787,131.234a.8.8,0,0,0-.8.8v1.064a.795.795,0,0,0,1.59,0v-1.064A.8.8,0,0,0,145.787,131.234Zm0,0" transform="translate(-129.672 -117.32)" fill="#232d41"/><path d="M165.563,66.012h-8.244a.8.8,0,1,0,0,1.59h8.244a.8.8,0,1,0,0-1.59Zm0,0" transform="translate(-139.981 -59.013)" fill="#232d41"/><path d="M179.876,93.682a.8.8,0,0,0-.8-.8h-4.606a.8.8,0,1,0,0,1.59h4.606A.8.8,0,0,0,179.876,93.682Zm0,0" transform="translate(-155.318 -83.039)" fill="#232d41"/><path d="M39.221,35.6a76.428,76.428,0,0,0-8.065-3L28.73,30.7l-.018-.014a2.166,2.166,0,0,0-1.51-.416V28.764a14.4,14.4,0,0,0,1.63-1.017,9.694,9.694,0,0,0,4.371-7.89l0-.836a3.283,3.283,0,0,0,3.059-3.272V14.573a3.277,3.277,0,0,0-1.346-2.648,3.019,3.019,0,0,0,.663-1.056,6.857,6.857,0,0,0-.187-4.336,9.3,9.3,0,0,0-2.837-4.3A10.244,10.244,0,0,0,23.339.394a11.237,11.237,0,0,0-2.757,0,10.243,10.243,0,0,0-9.216,1.835,9.3,9.3,0,0,0-2.837,4.3,6.857,6.857,0,0,0-.187,4.336A3.018,3.018,0,0,0,9,11.925a3.278,3.278,0,0,0-1.346,2.648v1.175a3.283,3.283,0,0,0,3.059,3.272l0,.835a9.7,9.7,0,0,0,4.371,7.891,14.345,14.345,0,0,0,1.63,1.017v1.508a2.166,2.166,0,0,0-1.508.416L15.2,30.7,12.722,32.61A76.5,76.5,0,0,0,4.7,35.6,7.635,7.635,0,0,0,.5,42.444v9.993a1.851,1.851,0,0,0,1.849,1.849H41.571a1.851,1.851,0,0,0,1.849-1.849V42.444a7.634,7.634,0,0,0-4.2-6.839ZM27.761,31.962l1.952,1.527-2.806,3.946-3.6-2.189L27.039,32a.58.58,0,0,1,.722-.035Zm-1.778,6.772-4.061,5.711a.183.183,0,0,1-.154.079.18.18,0,0,1-.153-.082l-3.831-5.614,4.178-2.538ZM18.309,31.13V29.5a11.076,11.076,0,0,0,3.636.83h.03a11.076,11.076,0,0,0,3.636-.83v1.633l-3.65,3.174ZM34.672,15.748a1.691,1.691,0,0,1-1.466,1.674l.009-4.523a1.691,1.691,0,0,1,1.457,1.673ZM31.548,3.461c2.272,1.856,3.1,5.379,2.542,6.849a1.459,1.459,0,0,1-1.058.924A20.1,20.1,0,0,0,31.329,7,13.833,13.833,0,0,0,26.34,1.588a8.266,8.266,0,0,1,5.208,1.872ZM9.248,15.748V14.573A1.69,1.69,0,0,1,10.705,12.9l.008,4.522a1.691,1.691,0,0,1-1.465-1.674Zm.581-5.439c-.553-1.469.27-4.992,2.542-6.849A8.262,8.262,0,0,1,17.58,1.588,13.83,13.83,0,0,0,12.591,7a20.082,20.082,0,0,0-1.7,4.231,1.464,1.464,0,0,1-1.058-.921Zm2.479,9.544-.014-7.69c.187-.83,2.06-8.411,8.345-10.173a9.63,9.63,0,0,1,2.643,0c6.267,1.758,8.155,9.342,8.344,10.173l-.014,7.691c0,6.017-6.978,8.825-9.651,8.885-2.673-.06-9.652-2.868-9.652-8.886Zm3.851,12.11a.58.58,0,0,1,.724.034l3.735,3.249-3.733,2.268-2.73-4ZM41.83,52.437a.259.259,0,0,1-.259.258H36.9V50.266a.8.8,0,0,0-1.59,0V52.7H8.614V42.487a.795.795,0,1,0-1.59,0V52.7H2.349a.259.259,0,0,1-.259-.258V42.443a6.052,6.052,0,0,1,3.328-5.421c.524-.266,1.061-.522,1.606-.766v2.528a.795.795,0,1,0,1.59,0v-3.2a36.689,36.689,0,0,1,4.118-1.34L20.3,45.34a1.778,1.778,0,0,0,1.451.775h.017a1.779,1.779,0,0,0,1.449-.748l7.915-11.133a36.659,36.659,0,0,1,4.172,1.354V46.564a.795.795,0,1,0,1.59,0V36.257c.545.244,1.082.5,1.607.766a6.052,6.052,0,0,1,3.327,5.421v9.993Zm0,0" transform="translate(-0.5 0)" fill="#232d41"/></svg>