<svg xmlns="http://www.w3.org/2000/svg" width="32.142" height="48.597" viewBox="0 0 32.142 48.597"><path d="M30.13,36.746a10.966,10.966,0,0,0-4.907-6.326,11.423,11.423,0,0,0,.293-3.921,32.079,32.079,0,0,0-.778-4.388c-.074-.33-.149-.66-.221-.99-.062-.283-.128-.569-.195-.85a3.142,3.142,0,0,0,1.089-1.542,2.507,2.507,0,0,0-.236-2.02,2.155,2.155,0,0,0-.674-.679,1.65,1.65,0,0,0,.43-.642A4.1,4.1,0,0,0,24.21,11.4a.358.358,0,0,0,.024-.057,3.753,3.753,0,0,0-.995-3.865,7.344,7.344,0,0,0-.708-.557A3,3,0,0,1,21.49,5.9a3.015,3.015,0,0,1-.2-.933c-.015-.124-.029-.253-.049-.382a5.472,5.472,0,0,0-3-4.017,5.875,5.875,0,0,0-5.016,0,6.434,6.434,0,0,0-3.3,3.777c-.062.191-.116.385-.169.574A4.2,4.2,0,0,1,9.2,6.265a4.173,4.173,0,0,1-.864.8,6.475,6.475,0,0,0-.77.663A3.476,3.476,0,0,0,6.8,11.146a.377.377,0,0,0,.075.132l-.024.024A3.418,3.418,0,0,0,5.819,13.96a2.648,2.648,0,0,0,1.144,1.914A2.527,2.527,0,0,0,7.2,20.13c-.065.334-.134.665-.205.991s-.147.66-.221.99A32.028,32.028,0,0,0,6,26.5a11.722,11.722,0,0,0,.211,3.594c-1.9.466-3.552,2.187-4.913,5.121A17.14,17.14,0,0,0,.007,42.14c-.019,1.193.015,2.4.1,3.591a1.762,1.762,0,0,0,.3,1.006,1.811,1.811,0,0,0,1.432.515c6.145.151,12.435.305,18.72.305,2.687,0,5.374-.028,8.047-.1a2.707,2.707,0,0,0,1.967-.606,2.712,2.712,0,0,0,.567-2,25.924,25.924,0,0,0-1.014-8.113ZM24.77,26.561a9.379,9.379,0,0,1-.812,5.086,5.432,5.432,0,0,1-3.264,2.806,20.593,20.593,0,0,0,1.452-8.678,23.792,23.792,0,0,0-.893-4.039c-.156-.55-.317-1.119-.456-1.679a10.513,10.513,0,0,1-.2-5.277A13.768,13.768,0,0,1,22.806,15.9l.157.1a15.3,15.3,0,0,0,.59,4.278c.078.332.159.676.233,1.011s.147.664.222,1a31.534,31.534,0,0,1,.762,4.285Zm-4.7,20.112a.374.374,0,0,0,.03.136q-1.144,0-2.288-.01a.363.363,0,0,0,.026-.116,72.682,72.682,0,0,1,.8-9.239,24.5,24.5,0,0,1,2.6-7.794,31.95,31.95,0,0,1-1.456,5.172.375.375,0,0,0,.353.5l.045,0a4.991,4.991,0,0,0,1.362-.369,38.965,38.965,0,0,0-1.463,11.723ZM11.739,34.822A37.165,37.165,0,0,1,10.5,30.729a29.363,29.363,0,0,1,3.651,16.032q-1.139-.016-2.277-.035a.383.383,0,0,0,.005-.079A55.567,55.567,0,0,0,10.113,35a4.966,4.966,0,0,0,1.229.314l.044,0a.374.374,0,0,0,.353-.5Zm-.178-20.486a13.765,13.765,0,0,1,8.33.188,11.14,11.14,0,0,0,.179,5.715c.142.571.305,1.146.462,1.7.109.386.22.775.324,1.168a.377.377,0,0,0-.14.091,6.83,6.83,0,0,1-10.035-.19c.1-.359.2-.715.3-1.068.157-.556.32-1.131.463-1.7a10.923,10.923,0,0,0,.12-5.9ZM21.422,28.1a2.763,2.763,0,0,1-.944-1.257,3.554,3.554,0,0,1-.272-2.165.384.384,0,0,0,.005-.061,7.369,7.369,0,0,0,.847-.7,15.217,15.217,0,0,1,.342,1.939,12.694,12.694,0,0,1,.021,2.246Zm-9.286-3a7.638,7.638,0,0,0,3.423.944c.071,0,.142,0,.214,0A7.7,7.7,0,0,0,19.4,25.12a4.3,4.3,0,0,0,.4,2.038,6.24,6.24,0,0,0,.348.655l-3.8,2.971a1.349,1.349,0,0,1-.633.347,1.283,1.283,0,0,1-.618-.188,19.08,19.08,0,0,1-4-2.647,3.029,3.029,0,0,0,.771-1.181,5.458,5.458,0,0,0,.266-2.014Zm-2.026.749a15.35,15.35,0,0,1,.353-1.986,7.562,7.562,0,0,0,.913.761.363.363,0,0,0,0,.074,5.561,5.561,0,0,1-.2,2.158,2.072,2.072,0,0,1-1.08,1.216A12.672,12.672,0,0,1,10.11,25.851Zm.12,2.969a2.178,2.178,0,0,0,.226-.089,19.856,19.856,0,0,0,4.316,2.884,2.057,2.057,0,0,0,.9.267c.036,0,.072,0,.108,0a2,2,0,0,0,1.03-.5l3.8-2.975a2.847,2.847,0,0,0,.318.269A24.575,24.575,0,0,0,17.9,37.315a73.3,73.3,0,0,0-.807,9.334.374.374,0,0,0,.022.144Q16,46.785,14.9,46.771A30.1,30.1,0,0,0,10.23,28.82ZM24.694,18.513a2.293,2.293,0,0,1-.565.929,14.1,14.1,0,0,1-.427-2.95,1.4,1.4,0,0,1,.837.612,1.75,1.75,0,0,1,.155,1.409ZM8.113,8.245A5.872,5.872,0,0,1,8.8,7.66,4.788,4.788,0,0,0,9.811,6.7a4.816,4.816,0,0,0,.661-1.594c.052-.188.1-.366.159-.541a5.673,5.673,0,0,1,2.907-3.332,5.19,5.19,0,0,1,4.371,0A4.713,4.713,0,0,1,20.5,4.7c.017.115.031.231.045.354a3.619,3.619,0,0,0,.271,1.166,3.6,3.6,0,0,0,1.28,1.317,6.706,6.706,0,0,1,.637.5,3.046,3.046,0,0,1,.881,2.732A8.508,8.508,0,0,0,19.8,8.953,16.993,16.993,0,0,0,9.161,9.82a8.3,8.3,0,0,0-1.7.941,2.761,2.761,0,0,1,.648-2.517ZM6.565,13.887a2.713,2.713,0,0,1,.822-2.066,6.315,6.315,0,0,1,2.071-1.313,16.24,16.24,0,0,1,10.17-.827,7.467,7.467,0,0,1,3.68,1.827,3.491,3.491,0,0,1,.931,3.6c-.066.161-.175.363-.322.413-.18.061-.44-.087-.713-.258a14.842,14.842,0,0,0-7.778-2.229H15.26A14.84,14.84,0,0,0,9.707,14.2a6.485,6.485,0,0,0-.816.46,3.516,3.516,0,0,1-1.349.627c-.466-.025-.924-.865-.976-1.4Zm.1,3.991a1.842,1.842,0,0,1,.916-1.509,15.607,15.607,0,0,1-.232,2.956A1.846,1.846,0,0,1,6.66,17.878Zm.082,8.682A31.477,31.477,0,0,1,7.5,22.276c.075-.332.15-.663.222-1A19.244,19.244,0,0,0,8.3,15.848a8.4,8.4,0,0,0,.985-.554A6.125,6.125,0,0,1,10,14.889q.418-.177.849-.326a10.226,10.226,0,0,1-.134,5.494c-.139.56-.3,1.129-.456,1.679a23.862,23.862,0,0,0-.893,4.039,20.594,20.594,0,0,0,1.452,8.678,5.432,5.432,0,0,1-3.264-2.806,9.376,9.376,0,0,1-.811-5.086ZM1,46.272a1.137,1.137,0,0,1-.144-.593c-.082-1.169-.115-2.356-.1-3.527a16.456,16.456,0,0,1,1.217-6.623C3.239,32.8,4.729,31.217,6.4,30.815a7.853,7.853,0,0,0,.482,1.172,6.508,6.508,0,0,0,2.329,2.565,54.772,54.772,0,0,1,1.915,12.127c0,.011,0,.022,0,.033q-2.655-.049-5.289-.112c0-.009,0-.018,0-.027l-.128-9.1a.374.374,0,0,0-.374-.369H5.342a.374.374,0,0,0-.369.38l.128,9.1L1.862,46.5c-.336-.008-.707-.034-.865-.232Zm29.046.057a2.135,2.135,0,0,1-1.453.383q-1.1.028-2.205.046c0-.006,0-.012,0-.017-.359-3.042-.6-6.135-.716-9.2a.375.375,0,0,0-.749.029c.116,3.06.357,6.154.714,9.2q-2.42.036-4.848.037a.373.373,0,0,0,.03-.156,38.221,38.221,0,0,1,1.608-12.093.368.368,0,0,0,.014-.1,6.533,6.533,0,0,0,2.186-2.473,7.691,7.691,0,0,0,.366-.839,10.294,10.294,0,0,1,4.428,5.833,25.271,25.271,0,0,1,.976,7.879,2.1,2.1,0,0,1-.352,1.468Zm0,0" transform="translate(0.498 0.54)" fill="#232d41" stroke="#232d41" stroke-width="1"/></svg>