<svg xmlns="http://www.w3.org/2000/svg" width="21.813" height="25.904" viewBox="0 0 21.813 25.904"><path d="M14.907,2C8.881,2,4,2.682,4,7.453V20.405a4.777,4.777,0,0,0,4.772,4.772L6.727,27.222V27.9h16.36v-.682l-2.045-2.045a4.777,4.777,0,0,0,4.772-4.772V7.453C25.813,2.682,20.933,2,14.907,2ZM8.772,22.45a2.045,2.045,0,1,1,2.045-2.045A2.042,2.042,0,0,1,8.772,22.45Zm4.772-8.18H6.727V7.453h6.817Zm7.5,8.18a2.045,2.045,0,1,1,2.045-2.045A2.042,2.042,0,0,1,21.042,22.45Zm2.045-8.18H16.27V7.453h6.817Z" transform="translate(-4 -2)" fill="#232d41"/></svg>